%TF.GenerationSoftware,KiCad,Pcbnew,8.0.0*%
%TF.CreationDate,2024-05-31T16:06:44+02:00*%
%TF.ProjectId,HIT2024,48495432-3032-4342-9e6b-696361645f70,rev?*%
%TF.SameCoordinates,PX3750280PY4692680*%
%TF.FileFunction,Copper,L1,Top*%
%TF.FilePolarity,Positive*%
%FSLAX46Y46*%
G04 Gerber Fmt 4.6, Leading zero omitted, Abs format (unit mm)*
G04 Created by KiCad (PCBNEW 8.0.0) date 2024-05-31 16:06:44*
%MOMM*%
%LPD*%
G01*
G04 APERTURE LIST*
G04 Aperture macros list*
%AMRoundRect*
0 Rectangle with rounded corners*
0 $1 Rounding radius*
0 $2 $3 $4 $5 $6 $7 $8 $9 X,Y pos of 4 corners*
0 Add a 4 corners polygon primitive as box body*
4,1,4,$2,$3,$4,$5,$6,$7,$8,$9,$2,$3,0*
0 Add four circle primitives for the rounded corners*
1,1,$1+$1,$2,$3*
1,1,$1+$1,$4,$5*
1,1,$1+$1,$6,$7*
1,1,$1+$1,$8,$9*
0 Add four rect primitives between the rounded corners*
20,1,$1+$1,$2,$3,$4,$5,0*
20,1,$1+$1,$4,$5,$6,$7,0*
20,1,$1+$1,$6,$7,$8,$9,0*
20,1,$1+$1,$8,$9,$2,$3,0*%
%AMHorizOval*
0 Thick line with rounded ends*
0 $1 width*
0 $2 $3 position (X,Y) of the first rounded end (center of the circle)*
0 $4 $5 position (X,Y) of the second rounded end (center of the circle)*
0 Add line between two ends*
20,1,$1,$2,$3,$4,$5,0*
0 Add two circle primitives to create the rounded ends*
1,1,$1,$2,$3*
1,1,$1,$4,$5*%
%AMFreePoly0*
4,1,95,0.890852,8.855303,1.480331,8.776025,2.063199,8.657552,2.636853,8.500412,3.198729,8.305307,3.746319,8.073109,4.277178,7.804854,4.788933,7.501741,5.279300,7.165123,5.746088,6.796505,6.187213,6.397531,6.600704,5.969984,6.984715,5.515774,7.337530,5.036929,7.657574,4.535588,7.943418,4.013990,8.193784,3.474465,8.407555,2.919421,8.583776,2.351339,8.721659,1.772755,
8.820590,1.186254,8.880125,0.594454,8.900000,0.000000,8.880125,-0.594454,8.820590,-1.186254,8.721659,-1.772755,8.583776,-2.351339,8.407555,-2.919421,8.193784,-3.474465,7.943418,-4.013990,7.657574,-4.535588,7.337530,-5.036929,6.984715,-5.515774,6.600704,-5.969984,6.187213,-6.397531,5.746088,-6.796505,5.279300,-7.165123,4.788933,-7.501741,4.277178,-7.804854,3.746319,-8.073109,
3.198729,-8.305307,2.636853,-8.500412,2.063199,-8.657552,1.480331,-8.776025,0.890852,-8.855303,0.297393,-8.895030,-0.297393,-8.895030,-0.890852,-8.855303,-1.480331,-8.776025,-2.063199,-8.657552,-2.636853,-8.500412,-3.198729,-8.305307,-3.746319,-8.073109,-4.277178,-7.804854,-4.788933,-7.501741,-5.279300,-7.165123,-5.746088,-6.796505,-6.187213,-6.397531,-6.600704,-5.969984,-6.984715,-5.515774,
-7.337530,-5.036929,-7.657574,-4.535588,-7.943418,-4.013990,-8.193784,-3.474465,-8.407555,-2.919421,-8.583776,-2.351339,-8.721659,-1.772755,-8.820590,-1.186254,-8.880125,-0.594454,-8.900000,0.000000,-8.880125,0.594454,-8.820590,1.186254,-8.721659,1.772755,-8.583776,2.351339,-8.407555,2.919421,-8.193784,3.474465,-7.943418,4.013990,-7.657574,4.535588,-7.337530,5.036929,-6.984715,5.515774,
-6.600704,5.969984,-6.187213,6.397531,-5.746088,6.796505,-5.279300,7.165123,-4.788933,7.501741,-4.277178,7.804854,-3.746319,8.073109,-3.198729,8.305307,-2.636853,8.500412,-2.063199,8.657552,-1.480331,8.776025,-0.890852,8.855303,-0.297393,8.895030,0.297393,8.895030,0.890852,8.855303,0.890852,8.855303,$1*%
G04 Aperture macros list end*
%TA.AperFunction,NonConductor*%
%ADD10C,0.500000*%
%TD*%
%TA.AperFunction,ComponentPad*%
%ADD11HorizOval,1.897531X0.728814X1.262342X-0.728814X-1.262342X0*%
%TD*%
%TA.AperFunction,ComponentPad*%
%ADD12O,4.000000X2.000000*%
%TD*%
%TA.AperFunction,ComponentPad*%
%ADD13HorizOval,2.000000X0.750000X-1.299038X-0.750000X1.299038X0*%
%TD*%
%TA.AperFunction,SMDPad,CuDef*%
%ADD14FreePoly0,0.000000*%
%TD*%
%TA.AperFunction,ComponentPad*%
%ADD15R,3.000000X2.500000*%
%TD*%
%TA.AperFunction,ComponentPad*%
%ADD16O,3.460000X2.500000*%
%TD*%
%TA.AperFunction,SMDPad,CuDef*%
%ADD17RoundRect,0.250000X9.750000X-0.250000X9.750000X0.250000X-9.750000X0.250000X-9.750000X-0.250000X0*%
%TD*%
%TA.AperFunction,SMDPad,CuDef*%
%ADD18RoundRect,0.125000X0.125000X8.375000X-0.125000X8.375000X-0.125000X-8.375000X0.125000X-8.375000X0*%
%TD*%
%TA.AperFunction,Conductor*%
%ADD19C,1.000000*%
%TD*%
%TA.AperFunction,Conductor*%
%ADD20C,0.500000*%
%TD*%
G04 APERTURE END LIST*
D10*
X3000000Y56500000D02*
X7000000Y56500000D01*
X5000000Y58500000D02*
X5000000Y54500000D01*
X19000000Y56500000D02*
X23000000Y56500000D01*
D11*
%TO.P,BT1,1,+*%
%TO.N,Net-(BT1-+)*%
X4247568Y43826330D03*
D12*
X12000000Y27500000D03*
X14000000Y27500000D03*
D13*
X21750000Y43933013D03*
D14*
%TO.P,BT1,2,-*%
%TO.N,Net-(BT1--)*%
X13000000Y38000000D03*
%TD*%
D15*
%TO.P,D1,1,K*%
%TO.N,Net-(BT1--)*%
X14790000Y50750000D03*
D16*
%TO.P,D1,2,A*%
%TO.N,Net-(D1-A)*%
X11020000Y50750000D03*
%TD*%
D17*
%TO.P,R1,1*%
%TO.N,Net-(D1-A)*%
X13250000Y4500000D03*
D18*
X3250000Y12500000D03*
X5250000Y12500000D03*
X7250000Y12500000D03*
X9250000Y12500000D03*
X11250000Y12500000D03*
X13250000Y12500000D03*
X15250000Y12500000D03*
X17250000Y12500000D03*
X19250000Y12500000D03*
X21250000Y12500000D03*
X23250000Y12500000D03*
%TO.P,R1,2*%
%TO.N,Net-(BT1-+)*%
X4250000Y14500000D03*
X6250000Y14500000D03*
X8250000Y14500000D03*
X10250000Y14500000D03*
X12250000Y14500000D03*
X14250000Y14500000D03*
X16250000Y14500000D03*
X18250000Y14500000D03*
X20250000Y14500000D03*
X22250000Y14500000D03*
D17*
X13250000Y22500000D03*
%TD*%
D19*
%TO.N,Net-(BT1-+)*%
X24500000Y27500000D02*
X14000000Y27500000D01*
X17250000Y27500000D02*
X17375000Y27375000D01*
X2500000Y42000000D02*
X2500000Y33500000D01*
X2500000Y22500000D02*
X2500000Y27500000D01*
X24500000Y22500000D02*
X24500000Y27500000D01*
X23500000Y42000000D02*
X22000000Y43500000D01*
X14000000Y27500000D02*
X17250000Y27500000D01*
X12000000Y27500000D02*
X9000000Y27500000D01*
X2500000Y27500000D02*
X12000000Y27500000D01*
X23500000Y33500000D02*
X23500000Y42000000D01*
X2500000Y22500000D02*
X13000000Y22500000D01*
X9500000Y26500000D02*
X13000000Y26500000D01*
X13000000Y26500000D02*
X16500000Y26500000D01*
X2500000Y33500000D02*
X8750000Y27250000D01*
X17375000Y27375000D02*
X23500000Y33500000D01*
X9000000Y27500000D02*
X8750000Y27250000D01*
X8750000Y27250000D02*
X9500000Y26500000D01*
X16500000Y26500000D02*
X17375000Y27375000D01*
X13000000Y22500000D02*
X24500000Y22500000D01*
X4000000Y43500000D02*
X2500000Y42000000D01*
%TO.N,Net-(BT1--)*%
X14290000Y39290000D02*
X13000000Y38000000D01*
X14290000Y51000000D02*
X14290000Y39290000D01*
%TO.N,Net-(D1-A)*%
X1000000Y27000000D02*
X1000000Y26500000D01*
X1000000Y27000000D02*
X1000000Y20750000D01*
D20*
X3250000Y20500000D02*
X3250000Y12000000D01*
D19*
X1000000Y45000000D02*
X1000000Y27000000D01*
D20*
X1000000Y20750000D02*
X3000000Y20750000D01*
D19*
X6500000Y50500000D02*
X1000000Y45000000D01*
X11250000Y50500000D02*
X6500000Y50500000D01*
X11750000Y51000000D02*
X11250000Y50500000D01*
%TD*%
%TA.AperFunction,Conductor*%
%TO.N,Net-(BT1-+)*%
G36*
X10807981Y28478064D02*
G01*
X10809557Y28476975D01*
X11318647Y28059525D01*
X11989966Y27509047D01*
X11994190Y27501152D01*
X11991594Y27492581D01*
X11989966Y27490953D01*
X10809562Y26523030D01*
X10800991Y26520434D01*
X10799101Y26520779D01*
X9027873Y26997669D01*
X9020775Y27003129D01*
X9019215Y27008967D01*
X9019215Y27991034D01*
X9022642Y27999307D01*
X9027870Y28002331D01*
X10799103Y28479222D01*
X10807981Y28478064D01*
G37*
%TD.AperFunction*%
%TD*%
%TA.AperFunction,Conductor*%
%TO.N,Net-(BT1-+)*%
G36*
X15200889Y28479224D02*
G01*
X16972128Y28002331D01*
X16979225Y27996872D01*
X16980785Y27991034D01*
X16980785Y27008967D01*
X16977358Y27000694D01*
X16972127Y26997669D01*
X15200898Y26520779D01*
X15192018Y26521937D01*
X15190440Y26523028D01*
X14010032Y27490954D01*
X14005809Y27498848D01*
X14008405Y27507419D01*
X14010033Y27509047D01*
X15190439Y28476972D01*
X15199008Y28479567D01*
X15200889Y28479224D01*
G37*
%TD.AperFunction*%
%TD*%
%TA.AperFunction,Conductor*%
%TO.N,Net-(BT1-+)*%
G36*
X3998270Y43487339D02*
G01*
X3999326Y43482050D01*
X3936651Y41719733D01*
X3932932Y41711587D01*
X3929850Y41709521D01*
X3002329Y41282641D01*
X2997437Y41281569D01*
X2017134Y41281569D01*
X2008861Y41284996D01*
X2005434Y41293269D01*
X2006237Y41297528D01*
X2191229Y41770908D01*
X2618618Y42864552D01*
X2624639Y42870927D01*
X3982762Y43493104D01*
X3991709Y43493433D01*
X3998270Y43487339D01*
G37*
%TD.AperFunction*%
%TD*%
%TA.AperFunction,Conductor*%
%TO.N,Net-(BT1-+)*%
G36*
X12031289Y27626750D02*
G01*
X13992563Y27500543D01*
X14000599Y27496592D01*
X14003133Y27491821D01*
X14255962Y26522720D01*
X14254735Y26513849D01*
X14247595Y26508445D01*
X14247222Y26508354D01*
X12014281Y26003231D01*
X12005456Y26004748D01*
X12000288Y26012062D01*
X12000000Y26014643D01*
X12000000Y26999806D01*
X12000005Y27000164D01*
X12018844Y27615433D01*
X12022523Y27623595D01*
X12030897Y27626768D01*
X12031289Y27626750D01*
G37*
%TD.AperFunction*%
%TD*%
%TA.AperFunction,Conductor*%
%TO.N,Net-(BT1-+)*%
G36*
X12031289Y27626750D02*
G01*
X13992563Y27500543D01*
X14000599Y27496592D01*
X14003133Y27491821D01*
X14255962Y26522720D01*
X14254735Y26513849D01*
X14247595Y26508445D01*
X14247222Y26508354D01*
X12014281Y26003231D01*
X12005456Y26004748D01*
X12000288Y26012062D01*
X12000000Y26014643D01*
X12000000Y26999806D01*
X12000005Y27000164D01*
X12018844Y27615433D01*
X12022523Y27623595D01*
X12030897Y27626768D01*
X12031289Y27626750D01*
G37*
%TD.AperFunction*%
%TD*%
%TA.AperFunction,Conductor*%
%TO.N,Net-(D1-A)*%
G36*
X9640172Y51652014D02*
G01*
X9692686Y51599500D01*
X9692687Y51599499D01*
X9692689Y51599498D01*
X9806811Y51533609D01*
X9806815Y51533607D01*
X9907204Y51506709D01*
X9934105Y51499501D01*
X9934107Y51499500D01*
X10365000Y51499500D01*
X10368970Y51498806D01*
X11729422Y51007788D01*
X11736039Y51001757D01*
X11736454Y50992812D01*
X11732025Y50987107D01*
X9861294Y49715836D01*
X9852566Y49714013D01*
X8333511Y49998214D01*
X8326010Y50003103D01*
X8323963Y50009714D01*
X8323963Y50992783D01*
X8327390Y51001056D01*
X8330410Y51003238D01*
X9626650Y51654198D01*
X9635579Y51654847D01*
X9640172Y51652014D01*
G37*
%TD.AperFunction*%
%TD*%
%TA.AperFunction,Conductor*%
%TO.N,Net-(BT1--)*%
G36*
X14296487Y50989635D02*
G01*
X14299737Y50986385D01*
X15286236Y49505649D01*
X15287971Y49496864D01*
X15286964Y49493930D01*
X14793234Y48506468D01*
X14786469Y48500600D01*
X14782769Y48500000D01*
X13797231Y48500000D01*
X13788958Y48503427D01*
X13786766Y48506468D01*
X13293035Y49493930D01*
X13292400Y49502862D01*
X13293763Y49505649D01*
X14280263Y50986385D01*
X14287702Y50991370D01*
X14296487Y50989635D01*
G37*
%TD.AperFunction*%
%TD*%
%TA.AperFunction,Conductor*%
%TO.N,Net-(D1-A)*%
G36*
X1203101Y21208858D02*
G01*
X1991267Y21002289D01*
X1998400Y20996877D01*
X2000000Y20990972D01*
X2000000Y20509029D01*
X1996573Y20500756D01*
X1991266Y20497711D01*
X1201193Y20290643D01*
X1192322Y20291861D01*
X1187426Y20297464D01*
X1000871Y20745505D01*
X1000855Y20754456D01*
X1187427Y21202539D01*
X1193770Y21208858D01*
X1201193Y21209358D01*
X1203101Y21208858D01*
G37*
%TD.AperFunction*%
%TD*%
%TA.AperFunction,Conductor*%
%TO.N,Net-(BT1-+)*%
G36*
X15200889Y28479224D02*
G01*
X16972128Y28002331D01*
X16979225Y27996872D01*
X16980785Y27991034D01*
X16980785Y27008967D01*
X16977358Y27000694D01*
X16972127Y26997669D01*
X15200898Y26520779D01*
X15192018Y26521937D01*
X15190440Y26523028D01*
X14010032Y27490954D01*
X14005809Y27498848D01*
X14008405Y27507419D01*
X14010033Y27509047D01*
X15190439Y28476972D01*
X15199008Y28479567D01*
X15200889Y28479224D01*
G37*
%TD.AperFunction*%
%TD*%
%TA.AperFunction,Conductor*%
%TO.N,Net-(BT1-+)*%
G36*
X10031289Y27626750D02*
G01*
X11992563Y27500543D01*
X12000599Y27496592D01*
X12003133Y27491821D01*
X12255962Y26522720D01*
X12254735Y26513849D01*
X12247595Y26508445D01*
X12247222Y26508354D01*
X10014281Y26003231D01*
X10005456Y26004748D01*
X10000288Y26012062D01*
X10000000Y26014643D01*
X10000000Y26999806D01*
X10000005Y27000164D01*
X10018844Y27615433D01*
X10022523Y27623595D01*
X10030897Y27626768D01*
X10031289Y27626750D01*
G37*
%TD.AperFunction*%
%TD*%
%TA.AperFunction,Conductor*%
%TO.N,Net-(BT1-+)*%
G36*
X22016391Y43494820D02*
G01*
X23441608Y42957421D01*
X23448140Y42951295D01*
X23448639Y42949989D01*
X23995205Y41215436D01*
X23994423Y41206516D01*
X23987562Y41200761D01*
X23984046Y41200220D01*
X23003100Y41200220D01*
X22997308Y41201754D01*
X22063398Y41733862D01*
X22057906Y41740935D01*
X22057497Y41743638D01*
X22000572Y43483491D01*
X22003727Y43491869D01*
X22011883Y43495565D01*
X22016391Y43494820D01*
G37*
%TD.AperFunction*%
%TD*%
%TA.AperFunction,Conductor*%
%TO.N,Net-(BT1-+)*%
G36*
X10807981Y28478064D02*
G01*
X10809557Y28476975D01*
X11318647Y28059525D01*
X11989966Y27509047D01*
X11994190Y27501152D01*
X11991594Y27492581D01*
X11989966Y27490953D01*
X10809562Y26523030D01*
X10800991Y26520434D01*
X10799101Y26520779D01*
X9027873Y26997669D01*
X9020775Y27003129D01*
X9019215Y27008967D01*
X9019215Y27991034D01*
X9022642Y27999307D01*
X9027870Y28002331D01*
X10799103Y28479222D01*
X10807981Y28478064D01*
G37*
%TD.AperFunction*%
%TD*%
M02*
