  0
SECTION
  2
HEADER
  9
$ANGBASE
  50
0.0
  9
$ANGDIR
  70
1
  9
$MEASUREMENT
  70
0
  0
ENDSEC
  0
SECTION
  2
TABLES
  0
TABLE
  2
LTYPE
  70
4
  0
LTYPE
  5
40F
  2
CONTINUOUS
  70
0
  3
Solid line
  72
65
  73
0
  40
0.0
  0
LTYPE
  5
410
  2
DASHDOT
 70
0
  3
Dash Dot ____ _ ____ _
 72
65
 73
4
 40
2.0
 49
1.25
 49
-0.25
 49
0.25
 49
-0.25
  0
LTYPE
  5
411
  2
DASHED
 70
0
  3
Dashed __ __ __ __ __
 72
65
 73
2
 40
0.75
 49
0.5
 49
-0.25
  0
LTYPE
  5
43B
  2
DOTTED
 70
0
  3
Dotted .  .  .  .
 72
65
 73
2
 40
0.2
 49
0.0
 49
-0.2
  0
ENDTAB
  0
TABLE
  2
STYLE
  70
4
  0
STYLE
  2
KICAD
  70
0
  40
0
  41
1
  42
1
  50
0
  71
0
  3
isocp.shx
  0
STYLE
  2
KICADB
  70
0
  40
0
  41
1
  42
1
  50
0
  71
0
  3
isocp.shx
  0
STYLE
  2
KICADI
  70
0
  40
0
  41
1
  42
1
  50
15
  71
0
  3
isocp.shx
  0
STYLE
  2
KICADBI
  70
0
  40
0
  41
1
  42
1
  50
15
  71
0
  3
isocp.shx
  0
ENDTAB
  0
TABLE
  2
LAYER
  70
1
  0
LAYER
  2
BLACK
  70
0
  62
7
  6
CONTINUOUS
  0
ENDTAB
  0
ENDSEC
  0
SECTION
  2
ENTITIES
0
LINE
8
BLACK
6
CONTINUOUS
10
2.7570124015748032
20
-0.8718129527559055
11
2.7637795275590551
21
-0.8748258661417323
0
LINE
8
BLACK
6
CONTINUOUS
10
2.7637795275590551
20
-0.8748258661417323
11
2.7697723622047246
21
-0.8791799212598425
0
LINE
8
BLACK
6
CONTINUOUS
10
2.7697723622047246
20
-0.8791799212598425
11
2.774728937007874
21
-0.8846847637795275
0
LINE
8
BLACK
6
CONTINUOUS
10
2.774728937007874
20
-0.8846847637795275
11
2.7784327165354332
21
-0.8910998818897637
0
LINE
8
BLACK
6
CONTINUOUS
10
2.7784327165354332
20
-0.8910998818897637
11
2.7807217716535431
21
-0.8981448425196851
0
LINE
8
BLACK
6
CONTINUOUS
10
2.7807217716535431
20
-0.8981448425196851
11
2.7814960629921259
21
-0.905511811023622
0
LINE
8
BLACK
6
CONTINUOUS
10
2.7814960629921259
20
-0.905511811023622
11
2.7807217716535431
21
-0.912878779527559
0
LINE
8
BLACK
6
CONTINUOUS
10
2.7807217716535431
20
-0.912878779527559
11
2.7784327165354332
21
-0.9199237401574802
0
LINE
8
BLACK
6
CONTINUOUS
10
2.7784327165354332
20
-0.9199237401574802
11
2.774728937007874
21
-0.9263388582677166
0
LINE
8
BLACK
6
CONTINUOUS
10
2.774728937007874
20
-0.9263388582677166
11
2.7697723622047246
21
-0.9318437007874015
0
LINE
8
BLACK
6
CONTINUOUS
10
2.7697723622047246
20
-0.9318437007874015
11
2.7637795275590551
21
-0.9361977559055118
0
LINE
8
BLACK
6
CONTINUOUS
10
2.7637795275590551
20
-0.9361977559055118
11
2.7570124015748032
21
-0.9392106692913386
0
LINE
8
BLACK
6
CONTINUOUS
10
2.7570124015748032
20
-0.9392106692913386
11
2.7497667716535434
21
-0.9407507874015748
0
LINE
8
BLACK
6
CONTINUOUS
10
2.7497667716535434
20
-0.9407507874015748
11
2.7423592125984251
21
-0.9407507874015748
0
LINE
8
BLACK
6
CONTINUOUS
10
2.7423592125984251
20
-0.9407507874015748
11
2.7351135826771653
21
-0.9392106692913386
0
LINE
8
BLACK
6
CONTINUOUS
10
2.7351135826771653
20
-0.9392106692913386
11
2.7283464566929134
21
-0.9361977559055118
0
LINE
8
BLACK
6
CONTINUOUS
10
2.7283464566929134
20
-0.9361977559055118
11
2.722353622047244
21
-0.9318437007874015
0
LINE
8
BLACK
6
CONTINUOUS
10
2.722353622047244
20
-0.9318437007874015
11
2.7173970472440945
21
-0.9263388582677166
0
LINE
8
BLACK
6
CONTINUOUS
10
2.7173970472440945
20
-0.9263388582677166
11
2.7166524803149605
21
-0.925049251968504
0
LINE
8
BLACK
6
CONTINUOUS
10
2.7166524803149605
20
-0.925049251968504
11
2.4980923622047242
21
-0.925191653543307
0
LINE
8
BLACK
6
CONTINUOUS
10
2.4980923622047242
20
-0.925191653543307
11
2.3817233464566927
21
-1.0417744094488188
0
LINE
8
BLACK
6
CONTINUOUS
10
2.3817233464566927
20
-1.0417744094488188
11
2.3818879133858268
21
-1.9193946062992127
0
LINE
8
BLACK
6
CONTINUOUS
10
2.3818879133858268
20
-1.9193946062992127
11
2.401574803149606
21
-1.9192913385826771
0
LINE
8
BLACK
6
CONTINUOUS
10
2.401574803149606
20
-1.9192913385826771
11
2.4041442125984251
21
-1.9194597637795274
0
LINE
8
BLACK
6
CONTINUOUS
10
2.4041442125984251
20
-1.9194597637795274
11
2.4091079527559054
21
-1.9207897637795275
0
LINE
8
BLACK
6
CONTINUOUS
10
2.4091079527559054
20
-1.9207897637795275
11
2.413558307086614
21
-1.9233591732283464
0
LINE
8
BLACK
6
CONTINUOUS
10
2.413558307086614
20
-1.9233591732283464
11
2.4171920078740157
21
-1.926992874015748
0
LINE
8
BLACK
6
CONTINUOUS
10
2.4171920078740157
20
-1.926992874015748
11
2.4197614173228348
21
-1.9314432283464567
0
LINE
8
BLACK
6
CONTINUOUS
10
2.4197614173228348
20
-1.9314432283464567
11
2.4210914173228346
21
-1.9364069685039369
0
LINE
8
BLACK
6
CONTINUOUS
10
2.4210914173228346
20
-1.9364069685039369
11
2.4210922834645667
21
-1.9381340944881889
0
LINE
8
BLACK
6
CONTINUOUS
10
2.4210922834645667
20
-1.9381340944881889
11
2.4212598425196852
21
-1.9389763779527558
0
LINE
8
BLACK
6
CONTINUOUS
10
2.4212598425196852
20
-1.9389763779527558
11
2.4212598425196852
21
-2.5590551181102361
0
LINE
8
BLACK
6
CONTINUOUS
10
2.4212598425196852
20
-2.5590551181102361
11
2.5393700787401574
21
-2.5590551181102361
0
LINE
8
BLACK
6
CONTINUOUS
10
2.5393700787401574
20
-2.5590551181102361
11
2.5393700787401574
21
-1.9389763779527558
0
LINE
8
BLACK
6
CONTINUOUS
10
2.5393700787401574
20
-1.9389763779527558
11
2.5401192913385828
21
-1.9352098031496063
0
LINE
8
BLACK
6
CONTINUOUS
10
2.5401192913385828
20
-1.9352098031496063
11
2.5422528740157482
21
-1.932016653543307
0
LINE
8
BLACK
6
CONTINUOUS
10
2.5422528740157482
20
-1.932016653543307
11
2.5454460236220471
21
-1.9298830708661416
0
LINE
8
BLACK
6
CONTINUOUS
10
2.5454460236220471
20
-1.9298830708661416
11
2.5492125984251968
21
-1.9291338582677164
0
LINE
8
BLACK
6
CONTINUOUS
10
2.5492125984251968
20
-1.9291338582677164
11
2.5688976377952755
21
-1.9291338582677164
0
LINE
8
BLACK
6
CONTINUOUS
10
2.5688976377952755
20
-1.9291338582677164
11
2.5726642125984251
21
-1.9298830708661416
0
LINE
8
BLACK
6
CONTINUOUS
10
2.5726642125984251
20
-1.9298830708661416
11
2.5758573622047245
21
-1.932016653543307
0
LINE
8
BLACK
6
CONTINUOUS
10
2.5758573622047245
20
-1.932016653543307
11
2.5779909448818898
21
-1.9352098031496063
0
LINE
8
BLACK
6
CONTINUOUS
10
2.5779909448818898
20
-1.9352098031496063
11
2.5787401574803148
21
-1.9389763779527558
0
LINE
8
BLACK
6
CONTINUOUS
10
2.5787401574803148
20
-1.9389763779527558
11
2.5787401574803148
21
-2.5590551181102361
0
LINE
8
BLACK
6
CONTINUOUS
10
2.5787401574803148
20
-2.5590551181102361
11
2.6968503937007875
21
-2.5590551181102361
0
LINE
8
BLACK
6
CONTINUOUS
10
2.6968503937007875
20
-2.5590551181102361
11
2.6968503937007875
21
-1.9389763779527558
0
LINE
8
BLACK
6
CONTINUOUS
10
2.6968503937007875
20
-1.9389763779527558
11
2.6975996062992125
21
-1.9352098031496063
0
LINE
8
BLACK
6
CONTINUOUS
10
2.6975996062992125
20
-1.9352098031496063
11
2.6997331889763778
21
-1.932016653543307
0
LINE
8
BLACK
6
CONTINUOUS
10
2.6997331889763778
20
-1.932016653543307
11
2.7029263385826772
21
-1.9298830708661416
0
LINE
8
BLACK
6
CONTINUOUS
10
2.7029263385826772
20
-1.9298830708661416
11
2.7066929133858268
21
-1.9291338582677164
0
LINE
8
BLACK
6
CONTINUOUS
10
2.7066929133858268
20
-1.9291338582677164
11
2.7263779527559056
21
-1.9291338582677164
0
LINE
8
BLACK
6
CONTINUOUS
10
2.7263779527559056
20
-1.9291338582677164
11
2.7301445275590552
21
-1.9298830708661416
0
LINE
8
BLACK
6
CONTINUOUS
10
2.7301445275590552
20
-1.9298830708661416
11
2.7333376771653541
21
-1.932016653543307
0
LINE
8
BLACK
6
CONTINUOUS
10
2.7333376771653541
20
-1.932016653543307
11
2.7354712598425195
21
-1.9352098031496063
0
LINE
8
BLACK
6
CONTINUOUS
10
2.7354712598425195
20
-1.9352098031496063
11
2.7362204724409449
21
-1.9389763779527558
0
LINE
8
BLACK
6
CONTINUOUS
10
2.7362204724409449
20
-1.9389763779527558
11
2.7362204724409449
21
-2.5590551181102361
0
LINE
8
BLACK
6
CONTINUOUS
10
2.7362204724409449
20
-2.5590551181102361
11
2.8543307086614171
21
-2.5590551181102361
0
LINE
8
BLACK
6
CONTINUOUS
10
2.8543307086614171
20
-2.5590551181102361
11
2.8543307086614171
21
-1.9389763779527558
0
LINE
8
BLACK
6
CONTINUOUS
10
2.8543307086614171
20
-1.9389763779527558
11
2.8550799212598426
21
-1.9352098031496063
0
LINE
8
BLACK
6
CONTINUOUS
10
2.8550799212598426
20
-1.9352098031496063
11
2.8572135039370079
21
-1.932016653543307
0
LINE
8
BLACK
6
CONTINUOUS
10
2.8572135039370079
20
-1.932016653543307
11
2.8604066535433068
21
-1.9298830708661416
0
LINE
8
BLACK
6
CONTINUOUS
10
2.8604066535433068
20
-1.9298830708661416
11
2.8641732283464565
21
-1.9291338582677164
0
LINE
8
BLACK
6
CONTINUOUS
10
2.8641732283464565
20
-1.9291338582677164
11
2.8838582677165352
21
-1.9291338582677164
0
LINE
8
BLACK
6
CONTINUOUS
10
2.8838582677165352
20
-1.9291338582677164
11
2.8876248425196849
21
-1.9298830708661416
0
LINE
8
BLACK
6
CONTINUOUS
10
2.8876248425196849
20
-1.9298830708661416
11
2.8908179921259842
21
-1.932016653543307
0
LINE
8
BLACK
6
CONTINUOUS
10
2.8908179921259842
20
-1.932016653543307
11
2.8929515748031496
21
-1.9352098031496063
0
LINE
8
BLACK
6
CONTINUOUS
10
2.8929515748031496
20
-1.9352098031496063
11
2.8937007874015745
21
-1.9389763779527558
0
LINE
8
BLACK
6
CONTINUOUS
10
2.8937007874015745
20
-1.9389763779527558
11
2.8937007874015745
21
-2.5590551181102361
0
LINE
8
BLACK
6
CONTINUOUS
10
2.8937007874015745
20
-2.5590551181102361
11
3.0118110236220472
21
-2.5590551181102361
0
LINE
8
BLACK
6
CONTINUOUS
10
3.0118110236220472
20
-2.5590551181102361
11
3.0118110236220472
21
-1.9389763779527558
0
LINE
8
BLACK
6
CONTINUOUS
10
3.0118110236220472
20
-1.9389763779527558
11
3.0125602362204722
21
-1.9352098031496063
0
LINE
8
BLACK
6
CONTINUOUS
10
3.0125602362204722
20
-1.9352098031496063
11
3.0146938188976375
21
-1.932016653543307
0
LINE
8
BLACK
6
CONTINUOUS
10
3.0146938188976375
20
-1.932016653543307
11
3.0178869685039369
21
-1.9298830708661416
0
LINE
8
BLACK
6
CONTINUOUS
10
3.0178869685039369
20
-1.9298830708661416
11
3.0216535433070866
21
-1.9291338582677164
0
LINE
8
BLACK
6
CONTINUOUS
10
3.0216535433070866
20
-1.9291338582677164
11
3.0413385826771653
21
-1.9291338582677164
0
LINE
8
BLACK
6
CONTINUOUS
10
3.0413385826771653
20
-1.9291338582677164
11
3.045105157480315
21
-1.9298830708661416
0
LINE
8
BLACK
6
CONTINUOUS
10
3.045105157480315
20
-1.9298830708661416
11
3.0482983070866143
21
-1.932016653543307
0
LINE
8
BLACK
6
CONTINUOUS
10
3.0482983070866143
20
-1.932016653543307
11
3.0504318897637797
21
-1.9352098031496063
0
LINE
8
BLACK
6
CONTINUOUS
10
3.0504318897637797
20
-1.9352098031496063
11
3.0511811023622046
21
-1.9389763779527558
0
LINE
8
BLACK
6
CONTINUOUS
10
3.0511811023622046
20
-1.9389763779527558
11
3.0511811023622046
21
-2.5590551181102361
0
LINE
8
BLACK
6
CONTINUOUS
10
3.0511811023622046
20
-2.5590551181102361
11
3.1692913385826773
21
-2.5590551181102361
0
LINE
8
BLACK
6
CONTINUOUS
10
3.1692913385826773
20
-2.5590551181102361
11
3.1692913385826773
21
-1.9389763779527558
0
LINE
8
BLACK
6
CONTINUOUS
10
3.1692913385826773
20
-1.9389763779527558
11
3.1700405511811023
21
-1.9352098031496063
0
LINE
8
BLACK
6
CONTINUOUS
10
3.1700405511811023
20
-1.9352098031496063
11
3.1721741338582676
21
-1.932016653543307
0
LINE
8
BLACK
6
CONTINUOUS
10
3.1721741338582676
20
-1.932016653543307
11
3.175367283464567
21
-1.9298830708661416
0
LINE
8
BLACK
6
CONTINUOUS
10
3.175367283464567
20
-1.9298830708661416
11
3.1791338582677167
21
-1.9291338582677164
0
LINE
8
BLACK
6
CONTINUOUS
10
3.1791338582677167
20
-1.9291338582677164
11
3.1988188976377954
21
-1.9291338582677164
0
LINE
8
BLACK
6
CONTINUOUS
10
3.1988188976377954
20
-1.9291338582677164
11
3.2025854724409446
21
-1.9298830708661416
0
LINE
8
BLACK
6
CONTINUOUS
10
3.2025854724409446
20
-1.9298830708661416
11
3.205778622047244
21
-1.932016653543307
0
LINE
8
BLACK
6
CONTINUOUS
10
3.205778622047244
20
-1.932016653543307
11
3.2079122047244093
21
-1.9352098031496063
0
LINE
8
BLACK
6
CONTINUOUS
10
3.2079122047244093
20
-1.9352098031496063
11
3.2086614173228347
21
-1.9389763779527558
0
LINE
8
BLACK
6
CONTINUOUS
10
3.2086614173228347
20
-1.9389763779527558
11
3.2086614173228347
21
-2.5885826771653542
0
LINE
8
BLACK
6
CONTINUOUS
10
3.2086614173228347
20
-2.5885826771653542
11
3.2079122047244093
21
-2.5923492519685039
0
LINE
8
BLACK
6
CONTINUOUS
10
3.2079122047244093
20
-2.5923492519685039
11
3.205778622047244
21
-2.5955424015748032
0
LINE
8
BLACK
6
CONTINUOUS
10
3.205778622047244
20
-2.5955424015748032
11
3.2025854724409446
21
-2.5976759842519686
0
LINE
8
BLACK
6
CONTINUOUS
10
3.2025854724409446
20
-2.5976759842519686
11
3.1988188976377954
21
-2.5984251968503935
0
LINE
8
BLACK
6
CONTINUOUS
10
3.1988188976377954
20
-2.5984251968503935
11
3.1791338582677167
21
-2.5984251968503935
0
LINE
8
BLACK
6
CONTINUOUS
10
3.1791338582677167
20
-2.5984251968503935
11
3.0413385826771653
21
-2.5984251968503935
0
LINE
8
BLACK
6
CONTINUOUS
10
3.0413385826771653
20
-2.5984251968503935
11
3.0216535433070866
21
-2.5984251968503935
0
LINE
8
BLACK
6
CONTINUOUS
10
3.0216535433070866
20
-2.5984251968503935
11
2.8838582677165352
21
-2.5984251968503935
0
LINE
8
BLACK
6
CONTINUOUS
10
2.8838582677165352
20
-2.5984251968503935
11
2.8641732283464565
21
-2.5984251968503935
0
LINE
8
BLACK
6
CONTINUOUS
10
2.8641732283464565
20
-2.5984251968503935
11
2.7263779527559056
21
-2.5984251968503935
0
LINE
8
BLACK
6
CONTINUOUS
10
2.7263779527559056
20
-2.5984251968503935
11
2.7066929133858268
21
-2.5984251968503935
0
LINE
8
BLACK
6
CONTINUOUS
10
2.7066929133858268
20
-2.5984251968503935
11
2.5688976377952755
21
-2.5984251968503935
0
LINE
8
BLACK
6
CONTINUOUS
10
2.5688976377952755
20
-2.5984251968503935
11
2.5492125984251968
21
-2.5984251968503935
0
LINE
8
BLACK
6
CONTINUOUS
10
2.5492125984251968
20
-2.5984251968503935
11
2.4114173228346458
21
-2.5984251968503935
0
LINE
8
BLACK
6
CONTINUOUS
10
2.4114173228346458
20
-2.5984251968503935
11
2.3917322834645667
21
-2.5984251968503935
0
LINE
8
BLACK
6
CONTINUOUS
10
2.3917322834645667
20
-2.5984251968503935
11
2.3879657086614174
21
-2.5976759842519686
0
LINE
8
BLACK
6
CONTINUOUS
10
2.3879657086614174
20
-2.5976759842519686
11
2.3847725590551181
21
-2.5955424015748032
0
LINE
8
BLACK
6
CONTINUOUS
10
2.3847725590551181
20
-2.5955424015748032
11
2.3826389763779527
21
-2.5923492519685039
0
LINE
8
BLACK
6
CONTINUOUS
10
2.3826389763779527
20
-2.5923492519685039
11
2.3818897637795273
21
-2.5885826771653542
0
LINE
8
BLACK
6
CONTINUOUS
10
2.3818897637795273
20
-2.5885826771653542
11
2.3818897637795273
21
-1.9586097637795274
0
LINE
8
BLACK
6
CONTINUOUS
10
2.3818897637795273
20
-1.9586097637795274
11
2.372047244094488
21
-1.9586614173228345
0
LINE
8
BLACK
6
CONTINUOUS
10
2.372047244094488
20
-1.9586614173228345
11
2.3694784251968501
21
-1.9584930314960629
0
LINE
8
BLACK
6
CONTINUOUS
10
2.3694784251968501
20
-1.9584930314960629
11
2.3694778346456693
21
-1.9584930314960629
0
LINE
8
BLACK
6
CONTINUOUS
10
2.3694778346456693
20
-1.9584930314960629
11
2.3645140944881891
21
-1.9571629921259841
0
LINE
8
BLACK
6
CONTINUOUS
10
2.3645140944881891
20
-1.9571629921259841
11
2.3600637401574804
21
-1.9545935826771652
0
LINE
8
BLACK
6
CONTINUOUS
10
2.3600637401574804
20
-1.9545935826771652
11
2.3600617716535432
21
-1.9545916141732282
0
LINE
8
BLACK
6
CONTINUOUS
10
2.3600617716535432
20
-1.9545916141732282
11
2.3482853149606298
21
-1.9430532677165353
0
LINE
8
BLACK
6
CONTINUOUS
10
2.3482853149606298
20
-1.9430532677165353
11
2.3465881102362203
21
-1.9411179527559055
0
LINE
8
BLACK
6
CONTINUOUS
10
2.3465881102362203
20
-1.9411179527559055
11
2.3465875196850394
21
-1.9411173622047244
0
LINE
8
BLACK
6
CONTINUOUS
10
2.3465875196850394
20
-1.9411173622047244
11
2.3440181102362203
21
-1.9366670078740158
0
LINE
8
BLACK
6
CONTINUOUS
10
2.3440181102362203
20
-1.9366670078740158
11
2.3439484251968503
21
-1.9364069685039369
0
LINE
8
BLACK
6
CONTINUOUS
10
2.3439484251968503
20
-1.9364069685039369
11
2.3426880708661417
21
-1.9317032677165353
0
LINE
8
BLACK
6
CONTINUOUS
10
2.3426880708661417
20
-1.9317032677165353
11
2.3426880708661417
21
-1.9314432283464567
0
LINE
8
BLACK
6
CONTINUOUS
10
2.3426880708661417
20
-1.9314432283464567
11
2.3425196850393699
21
-1.0334645669291338
0
LINE
8
BLACK
6
CONTINUOUS
10
2.3425196850393699
20
-1.0334645669291338
11
2.3426880708661417
21
-1.030895748031496
0
LINE
8
BLACK
6
CONTINUOUS
10
2.3426880708661417
20
-1.030895748031496
11
2.3426880708661417
21
-1.0308951574803149
0
LINE
8
BLACK
6
CONTINUOUS
10
2.3426880708661417
20
-1.0308951574803149
11
2.3440181102362203
21
-1.0259314173228347
0
LINE
8
BLACK
6
CONTINUOUS
10
2.3440181102362203
20
-1.0259314173228347
11
2.3465875196850394
21
-1.021481062992126
0
LINE
8
BLACK
6
CONTINUOUS
10
2.3465875196850394
20
-1.021481062992126
11
2.3466303937007873
21
-1.0214381496062992
0
LINE
8
BLACK
6
CONTINUOUS
10
2.3466303937007873
20
-1.0214381496062992
11
2.4762380708661418
21
-0.8915924015748031
0
LINE
8
BLACK
6
CONTINUOUS
10
2.4762380708661418
20
-0.8915924015748031
11
2.4781736220472439
21
-0.8898949212598425
0
LINE
8
BLACK
6
CONTINUOUS
10
2.4781736220472439
20
-0.8898949212598425
11
2.4781739763779527
21
-0.8898946062992126
0
LINE
8
BLACK
6
CONTINUOUS
10
2.4781739763779527
20
-0.8898946062992126
11
2.4826243307086613
21
-0.8873251968503937
0
LINE
8
BLACK
6
CONTINUOUS
10
2.4826243307086613
20
-0.8873251968503937
11
2.4875880708661415
21
-0.885995157480315
0
LINE
8
BLACK
6
CONTINUOUS
10
2.4875880708661415
20
-0.885995157480315
11
2.4876485039370078
21
-0.885995157480315
0
LINE
8
BLACK
6
CONTINUOUS
10
2.4876485039370078
20
-0.885995157480315
11
2.716726653543307
21
-0.8858458661417322
0
LINE
8
BLACK
6
CONTINUOUS
10
2.716726653543307
20
-0.8858458661417322
11
2.7173970472440945
21
-0.8846847637795275
0
LINE
8
BLACK
6
CONTINUOUS
10
2.7173970472440945
20
-0.8846847637795275
11
2.722353622047244
21
-0.8791799212598425
0
LINE
8
BLACK
6
CONTINUOUS
10
2.722353622047244
20
-0.8791799212598425
11
2.7283464566929134
21
-0.8748258661417323
0
LINE
8
BLACK
6
CONTINUOUS
10
2.7283464566929134
20
-0.8748258661417323
11
2.7351135826771653
21
-0.8718129527559055
0
LINE
8
BLACK
6
CONTINUOUS
10
2.7351135826771653
20
-0.8718129527559055
11
2.7423592125984251
21
-0.8702728346456693
0
LINE
8
BLACK
6
CONTINUOUS
10
2.7423592125984251
20
-0.8702728346456693
11
2.7497667716535434
21
-0.8702728346456693
0
LINE
8
BLACK
6
CONTINUOUS
10
2.7497667716535434
20
-0.8702728346456693
11
2.7570124015748032
21
-0.8718129527559055
0
LINE
8
BLACK
6
CONTINUOUS
10
2.8018461023622048
20
-1.0017245669291339
11
2.8080871259842519
21
-1.0039083858267717
0
LINE
8
BLACK
6
CONTINUOUS
10
2.8080871259842519
20
-1.0039083858267717
11
2.8136857086614171
21
-1.0074262204724409
0
LINE
8
BLACK
6
CONTINUOUS
10
2.8136857086614171
20
-1.0074262204724409
11
2.8172385039370078
21
-1.0109790157480314
0
LINE
8
BLACK
6
CONTINUOUS
10
2.8172385039370078
20
-1.0109790157480314
11
3.048228346456693
21
-1.0108267716535433
0
LINE
8
BLACK
6
CONTINUOUS
10
3.048228346456693
20
-1.0108267716535433
11
3.0507971653543304
21
-1.0109951574803149
0
LINE
8
BLACK
6
CONTINUOUS
10
3.0507971653543304
20
-1.0109951574803149
11
3.0507977559055117
21
-1.0109951574803149
0
LINE
8
BLACK
6
CONTINUOUS
10
3.0507977559055117
20
-1.0109951574803149
11
3.0549273622047242
21
-1.0121016929133857
0
LINE
8
BLACK
6
CONTINUOUS
10
3.0549273622047242
20
-1.0121016929133857
11
3.055761496062992
21
-1.0123251968503937
0
LINE
8
BLACK
6
CONTINUOUS
10
3.055761496062992
20
-1.0123251968503937
11
3.0602118503937006
21
-1.0148946062992126
0
LINE
8
BLACK
6
CONTINUOUS
10
3.0602118503937006
20
-1.0148946062992126
11
3.0602654724409448
21
-1.0149482283464566
0
LINE
8
BLACK
6
CONTINUOUS
10
3.0602654724409448
20
-1.0149482283464566
11
3.2225808267716536
21
-1.177025433070866
0
LINE
8
BLACK
6
CONTINUOUS
10
3.2225808267716536
20
-1.177025433070866
11
3.2242782677165351
21
-1.1789610236220471
0
LINE
8
BLACK
6
CONTINUOUS
10
3.2242782677165351
20
-1.1789610236220471
11
3.2242786220472439
21
-1.1789613779527559
0
LINE
8
BLACK
6
CONTINUOUS
10
3.2242786220472439
20
-1.1789613779527559
11
3.226848031496063
21
-1.1834117322834645
0
LINE
8
BLACK
6
CONTINUOUS
10
3.226848031496063
20
-1.1834117322834645
11
3.2281780708661416
21
-1.1883754724409448
0
LINE
8
BLACK
6
CONTINUOUS
10
3.2281780708661416
20
-1.1883754724409448
11
3.2281780708661416
21
-1.1884720078740156
0
LINE
8
BLACK
6
CONTINUOUS
10
3.2281780708661416
20
-1.1884720078740156
11
3.2283464566929134
21
-1.6013779527559056
0
LINE
8
BLACK
6
CONTINUOUS
10
3.2283464566929134
20
-1.6013779527559056
11
3.2281780708661416
21
-1.6039467322834646
0
LINE
8
BLACK
6
CONTINUOUS
10
3.2281780708661416
20
-1.6039467322834646
11
3.2281780708661416
21
-1.6039473622047244
0
LINE
8
BLACK
6
CONTINUOUS
10
3.2281780708661416
20
-1.6039473622047244
11
3.226848031496063
21
-1.6089111023622047
0
LINE
8
BLACK
6
CONTINUOUS
10
3.226848031496063
20
-1.6089111023622047
11
3.2242786220472439
21
-1.6133614566929133
0
LINE
8
BLACK
6
CONTINUOUS
10
3.2242786220472439
20
-1.6133614566929133
11
3.2242685039370076
21
-1.6133715354330709
0
LINE
8
BLACK
6
CONTINUOUS
10
3.2242685039370076
20
-1.6133715354330709
11
3.1789566929133857
21
-1.6588609448818896
0
LINE
8
BLACK
6
CONTINUOUS
10
3.1789566929133857
20
-1.6588609448818896
11
3.1791338582677167
21
-1.6604330708661417
0
LINE
8
BLACK
6
CONTINUOUS
10
3.1791338582677167
20
-1.6604330708661417
11
3.1783935433070867
21
-1.6670035826771654
0
LINE
8
BLACK
6
CONTINUOUS
10
3.1783935433070867
20
-1.6670035826771654
11
3.1762097244094489
21
-1.6732446062992126
0
LINE
8
BLACK
6
CONTINUOUS
10
3.1762097244094489
20
-1.6732446062992126
11
3.1726918897637795
21
-1.678843188976378
0
LINE
8
BLACK
6
CONTINUOUS
10
3.1726918897637795
20
-1.678843188976378
11
3.1691423622047243
21
-1.6823926771653543
0
LINE
8
BLACK
6
CONTINUOUS
10
3.1691423622047243
20
-1.6823926771653543
11
3.1692757086614174
21
-1.8503937007874016
0
LINE
8
BLACK
6
CONTINUOUS
10
3.1692757086614174
20
-1.8503937007874016
11
3.1791338582677167
21
-1.8503937007874016
0
LINE
8
BLACK
6
CONTINUOUS
10
3.1791338582677167
20
-1.8503937007874016
11
3.1829004330708659
21
-1.8511429133858268
0
LINE
8
BLACK
6
CONTINUOUS
10
3.1829004330708659
20
-1.8511429133858268
11
3.1860935826771652
21
-1.8532764960629922
0
LINE
8
BLACK
6
CONTINUOUS
10
3.1860935826771652
20
-1.8532764960629922
11
3.1882271653543306
21
-1.8564696456692913
0
LINE
8
BLACK
6
CONTINUOUS
10
3.1882271653543306
20
-1.8564696456692913
11
3.188976377952756
21
-1.860236220472441
0
LINE
8
BLACK
6
CONTINUOUS
10
3.188976377952756
20
-1.860236220472441
11
3.188976377952756
21
-1.8799212598425197
0
LINE
8
BLACK
6
CONTINUOUS
10
3.188976377952756
20
-1.8799212598425197
11
3.1882271653543306
21
-1.8836878346456694
0
LINE
8
BLACK
6
CONTINUOUS
10
3.1882271653543306
20
-1.8836878346456694
11
3.1860935826771652
21
-1.8868809842519685
0
LINE
8
BLACK
6
CONTINUOUS
10
3.1860935826771652
20
-1.8868809842519685
11
3.1829004330708659
21
-1.8890145669291338
0
LINE
8
BLACK
6
CONTINUOUS
10
3.1829004330708659
20
-1.8890145669291338
11
3.1791338582677167
21
-1.889763779527559
0
LINE
8
BLACK
6
CONTINUOUS
10
3.1791338582677167
20
-1.889763779527559
11
3.1299212598425195
21
-1.889763779527559
0
LINE
8
BLACK
6
CONTINUOUS
10
3.1299212598425195
20
-1.889763779527559
11
3.1299212598425195
21
-2.5098425196850394
0
LINE
8
BLACK
6
CONTINUOUS
10
3.1299212598425195
20
-2.5098425196850394
11
3.1291720472440945
21
-2.513609094488189
0
LINE
8
BLACK
6
CONTINUOUS
10
3.1291720472440945
20
-2.513609094488189
11
3.1270384645669291
21
-2.5168022440944879
0
LINE
8
BLACK
6
CONTINUOUS
10
3.1270384645669291
20
-2.5168022440944879
11
3.1238453149606298
21
-2.5189358267716533
0
LINE
8
BLACK
6
CONTINUOUS
10
3.1238453149606298
20
-2.5189358267716533
11
3.1200787401574801
21
-2.5196850393700787
0
LINE
8
BLACK
6
CONTINUOUS
10
3.1200787401574801
20
-2.5196850393700787
11
3.1003937007874014
21
-2.5196850393700787
0
LINE
8
BLACK
6
CONTINUOUS
10
3.1003937007874014
20
-2.5196850393700787
11
3.0966271259842517
21
-2.5189358267716533
0
LINE
8
BLACK
6
CONTINUOUS
10
3.0966271259842517
20
-2.5189358267716533
11
3.0934339763779528
21
-2.5168022440944879
0
LINE
8
BLACK
6
CONTINUOUS
10
3.0934339763779528
20
-2.5168022440944879
11
3.0913003937007875
21
-2.513609094488189
0
LINE
8
BLACK
6
CONTINUOUS
10
3.0913003937007875
20
-2.513609094488189
11
3.090551181102362
21
-2.5098425196850394
0
LINE
8
BLACK
6
CONTINUOUS
10
3.090551181102362
20
-2.5098425196850394
11
3.090551181102362
21
-1.889763779527559
0
LINE
8
BLACK
6
CONTINUOUS
10
3.090551181102362
20
-1.889763779527559
11
2.9724409448818898
21
-1.889763779527559
0
LINE
8
BLACK
6
CONTINUOUS
10
2.9724409448818898
20
-1.889763779527559
11
2.9724409448818898
21
-2.5098425196850394
0
LINE
8
BLACK
6
CONTINUOUS
10
2.9724409448818898
20
-2.5098425196850394
11
2.9716917322834644
21
-2.513609094488189
0
LINE
8
BLACK
6
CONTINUOUS
10
2.9716917322834644
20
-2.513609094488189
11
2.969558149606299
21
-2.5168022440944879
0
LINE
8
BLACK
6
CONTINUOUS
10
2.969558149606299
20
-2.5168022440944879
11
2.9663650000000001
21
-2.5189358267716533
0
LINE
8
BLACK
6
CONTINUOUS
10
2.9663650000000001
20
-2.5189358267716533
11
2.9625984251968505
21
-2.5196850393700787
0
LINE
8
BLACK
6
CONTINUOUS
10
2.9625984251968505
20
-2.5196850393700787
11
2.9429133858267718
21
-2.5196850393700787
0
LINE
8
BLACK
6
CONTINUOUS
10
2.9429133858267718
20
-2.5196850393700787
11
2.9391468110236221
21
-2.5189358267716533
0
LINE
8
BLACK
6
CONTINUOUS
10
2.9391468110236221
20
-2.5189358267716533
11
2.9359536614173227
21
-2.5168022440944879
0
LINE
8
BLACK
6
CONTINUOUS
10
2.9359536614173227
20
-2.5168022440944879
11
2.9338200787401574
21
-2.513609094488189
0
LINE
8
BLACK
6
CONTINUOUS
10
2.9338200787401574
20
-2.513609094488189
11
2.9330708661417324
21
-2.5098425196850394
0
LINE
8
BLACK
6
CONTINUOUS
10
2.9330708661417324
20
-2.5098425196850394
11
2.9330708661417324
21
-1.889763779527559
0
LINE
8
BLACK
6
CONTINUOUS
10
2.9330708661417324
20
-1.889763779527559
11
2.8149606299212597
21
-1.889763779527559
0
LINE
8
BLACK
6
CONTINUOUS
10
2.8149606299212597
20
-1.889763779527559
11
2.8149606299212597
21
-2.5098425196850394
0
LINE
8
BLACK
6
CONTINUOUS
10
2.8149606299212597
20
-2.5098425196850394
11
2.8142114173228348
21
-2.513609094488189
0
LINE
8
BLACK
6
CONTINUOUS
10
2.8142114173228348
20
-2.513609094488189
11
2.8120778346456694
21
-2.5168022440944879
0
LINE
8
BLACK
6
CONTINUOUS
10
2.8120778346456694
20
-2.5168022440944879
11
2.8088846850393701
21
-2.5189358267716533
0
LINE
8
BLACK
6
CONTINUOUS
10
2.8088846850393701
20
-2.5189358267716533
11
2.8051181102362204
21
-2.5196850393700787
0
LINE
8
BLACK
6
CONTINUOUS
10
2.8051181102362204
20
-2.5196850393700787
11
2.7854330708661417
21
-2.5196850393700787
0
LINE
8
BLACK
6
CONTINUOUS
10
2.7854330708661417
20
-2.5196850393700787
11
2.781666496062992
21
-2.5189358267716533
0
LINE
8
BLACK
6
CONTINUOUS
10
2.781666496062992
20
-2.5189358267716533
11
2.7784733464566926
21
-2.5168022440944879
0
LINE
8
BLACK
6
CONTINUOUS
10
2.7784733464566926
20
-2.5168022440944879
11
2.7763397637795273
21
-2.513609094488189
0
LINE
8
BLACK
6
CONTINUOUS
10
2.7763397637795273
20
-2.513609094488189
11
2.7755905511811023
21
-2.5098425196850394
0
LINE
8
BLACK
6
CONTINUOUS
10
2.7755905511811023
20
-2.5098425196850394
11
2.7755905511811023
21
-1.889763779527559
0
LINE
8
BLACK
6
CONTINUOUS
10
2.7755905511811023
20
-1.889763779527559
11
2.6574803149606296
21
-1.889763779527559
0
LINE
8
BLACK
6
CONTINUOUS
10
2.6574803149606296
20
-1.889763779527559
11
2.6574803149606296
21
-2.5098425196850394
0
LINE
8
BLACK
6
CONTINUOUS
10
2.6574803149606296
20
-2.5098425196850394
11
2.6567311023622047
21
-2.513609094488189
0
LINE
8
BLACK
6
CONTINUOUS
10
2.6567311023622047
20
-2.513609094488189
11
2.6545975196850393
21
-2.5168022440944879
0
LINE
8
BLACK
6
CONTINUOUS
10
2.6545975196850393
20
-2.5168022440944879
11
2.65140437007874
21
-2.5189358267716533
0
LINE
8
BLACK
6
CONTINUOUS
10
2.65140437007874
20
-2.5189358267716533
11
2.6476377952755903
21
-2.5196850393700787
0
LINE
8
BLACK
6
CONTINUOUS
10
2.6476377952755903
20
-2.5196850393700787
11
2.6279527559055116
21
-2.5196850393700787
0
LINE
8
BLACK
6
CONTINUOUS
10
2.6279527559055116
20
-2.5196850393700787
11
2.6241861811023623
21
-2.5189358267716533
0
LINE
8
BLACK
6
CONTINUOUS
10
2.6241861811023623
20
-2.5189358267716533
11
2.620993031496063
21
-2.5168022440944879
0
LINE
8
BLACK
6
CONTINUOUS
10
2.620993031496063
20
-2.5168022440944879
11
2.6188594488188977
21
-2.513609094488189
0
LINE
8
BLACK
6
CONTINUOUS
10
2.6188594488188977
20
-2.513609094488189
11
2.6181102362204722
21
-2.5098425196850394
0
LINE
8
BLACK
6
CONTINUOUS
10
2.6181102362204722
20
-2.5098425196850394
11
2.6181102362204722
21
-1.889763779527559
0
LINE
8
BLACK
6
CONTINUOUS
10
2.6181102362204722
20
-1.889763779527559
11
2.5
21
-1.889763779527559
0
LINE
8
BLACK
6
CONTINUOUS
10
2.5
20
-1.889763779527559
11
2.5
21
-2.5098425196850394
0
LINE
8
BLACK
6
CONTINUOUS
10
2.5
20
-2.5098425196850394
11
2.4992507874015746
21
-2.513609094488189
0
LINE
8
BLACK
6
CONTINUOUS
10
2.4992507874015746
20
-2.513609094488189
11
2.4971172047244092
21
-2.5168022440944879
0
LINE
8
BLACK
6
CONTINUOUS
10
2.4971172047244092
20
-2.5168022440944879
11
2.4939240551181103
21
-2.5189358267716533
0
LINE
8
BLACK
6
CONTINUOUS
10
2.4939240551181103
20
-2.5189358267716533
11
2.4901574803149606
21
-2.5196850393700787
0
LINE
8
BLACK
6
CONTINUOUS
10
2.4901574803149606
20
-2.5196850393700787
11
2.4704724409448819
21
-2.5196850393700787
0
LINE
8
BLACK
6
CONTINUOUS
10
2.4704724409448819
20
-2.5196850393700787
11
2.4667058661417323
21
-2.5189358267716533
0
LINE
8
BLACK
6
CONTINUOUS
10
2.4667058661417323
20
-2.5189358267716533
11
2.4635127165354329
21
-2.5168022440944879
0
LINE
8
BLACK
6
CONTINUOUS
10
2.4635127165354329
20
-2.5168022440944879
11
2.4613791338582676
21
-2.513609094488189
0
LINE
8
BLACK
6
CONTINUOUS
10
2.4613791338582676
20
-2.513609094488189
11
2.4606299212598426
21
-2.5098425196850394
0
LINE
8
BLACK
6
CONTINUOUS
10
2.4606299212598426
20
-2.5098425196850394
11
2.4606299212598426
21
-1.889763779527559
0
LINE
8
BLACK
6
CONTINUOUS
10
2.4606299212598426
20
-1.889763779527559
11
2.4409448818897639
21
-1.889763779527559
0
LINE
8
BLACK
6
CONTINUOUS
10
2.4409448818897639
20
-1.889763779527559
11
2.4114173228346458
21
-1.889763779527559
0
LINE
8
BLACK
6
CONTINUOUS
10
2.4114173228346458
20
-1.889763779527559
11
2.4076507480314961
21
-1.8890145669291338
0
LINE
8
BLACK
6
CONTINUOUS
10
2.4076507480314961
20
-1.8890145669291338
11
2.4044575984251968
21
-1.8868809842519685
0
LINE
8
BLACK
6
CONTINUOUS
10
2.4044575984251968
20
-1.8868809842519685
11
2.4023240157480314
21
-1.8836878346456694
0
LINE
8
BLACK
6
CONTINUOUS
10
2.4023240157480314
20
-1.8836878346456694
11
2.401574803149606
21
-1.8799212598425197
0
LINE
8
BLACK
6
CONTINUOUS
10
2.401574803149606
20
-1.8799212598425197
11
2.401574803149606
21
-1.860236220472441
0
LINE
8
BLACK
6
CONTINUOUS
10
2.401574803149606
20
-1.860236220472441
11
2.4023240157480314
21
-1.8564696456692913
0
LINE
8
BLACK
6
CONTINUOUS
10
2.4023240157480314
20
-1.8564696456692913
11
2.4044575984251968
21
-1.8532764960629922
0
LINE
8
BLACK
6
CONTINUOUS
10
2.4044575984251968
20
-1.8532764960629922
11
2.4076507480314961
21
-1.8511429133858268
0
LINE
8
BLACK
6
CONTINUOUS
10
2.4076507480314961
20
-1.8511429133858268
11
2.4114173228346458
21
-1.8503937007874016
0
LINE
8
BLACK
6
CONTINUOUS
10
2.4114173228346458
20
-1.8503937007874016
11
2.4214105905511811
21
-1.8503937007874016
0
LINE
8
BLACK
6
CONTINUOUS
10
2.4214105905511811
20
-1.8503937007874016
11
2.4212771653543306
21
-1.682261062992126
0
LINE
8
BLACK
6
CONTINUOUS
10
2.4212771653543306
20
-1.682261062992126
11
2.4178592913385826
21
-1.678843188976378
0
LINE
8
BLACK
6
CONTINUOUS
10
2.4178592913385826
20
-1.678843188976378
11
2.4143414566929131
21
-1.6732446062992126
0
LINE
8
BLACK
6
CONTINUOUS
10
2.4143414566929131
20
-1.6732446062992126
11
2.4121576377952754
21
-1.6670035826771654
0
LINE
8
BLACK
6
CONTINUOUS
10
2.4121576377952754
20
-1.6670035826771654
11
2.4114173228346458
21
-1.6604330708661417
0
LINE
8
BLACK
6
CONTINUOUS
10
2.4114173228346458
20
-1.6604330708661417
11
2.4121576377952754
21
-1.6538625590551181
0
LINE
8
BLACK
6
CONTINUOUS
10
2.4121576377952754
20
-1.6538625590551181
11
2.4143414566929131
21
-1.6476215354330708
0
LINE
8
BLACK
6
CONTINUOUS
10
2.4143414566929131
20
-1.6476215354330708
11
2.4178592913385826
21
-1.6420229527559054
0
LINE
8
BLACK
6
CONTINUOUS
10
2.4178592913385826
20
-1.6420229527559054
11
2.4225347637795274
21
-1.6373474803149606
0
LINE
8
BLACK
6
CONTINUOUS
10
2.4225347637795274
20
-1.6373474803149606
11
2.428133346456693
21
-1.6338296456692913
0
LINE
8
BLACK
6
CONTINUOUS
10
2.428133346456693
20
-1.6338296456692913
11
2.4343743700787401
21
-1.6316458267716536
0
LINE
8
BLACK
6
CONTINUOUS
10
2.4343743700787401
20
-1.6316458267716536
11
2.4409448818897639
21
-1.6309055118110236
0
LINE
8
BLACK
6
CONTINUOUS
10
2.4409448818897639
20
-1.6309055118110236
11
2.4475153937007872
21
-1.6316458267716536
0
LINE
8
BLACK
6
CONTINUOUS
10
2.4475153937007872
20
-1.6316458267716536
11
2.4537564173228348
21
-1.6338296456692913
0
LINE
8
BLACK
6
CONTINUOUS
10
2.4537564173228348
20
-1.6338296456692913
11
2.459355
21
-1.6373474803149606
0
LINE
8
BLACK
6
CONTINUOUS
10
2.459355
20
-1.6373474803149606
11
2.4640304724409448
21
-1.6420229527559054
0
LINE
8
BLACK
6
CONTINUOUS
10
2.4640304724409448
20
-1.6420229527559054
11
2.4675483070866142
21
-1.6476215354330708
0
LINE
8
BLACK
6
CONTINUOUS
10
2.4675483070866142
20
-1.6476215354330708
11
2.469732125984252
21
-1.6538625590551181
0
LINE
8
BLACK
6
CONTINUOUS
10
2.469732125984252
20
-1.6538625590551181
11
2.4704724409448819
21
-1.6604330708661417
0
LINE
8
BLACK
6
CONTINUOUS
10
2.4704724409448819
20
-1.6604330708661417
11
2.469732125984252
21
-1.6670035826771654
0
LINE
8
BLACK
6
CONTINUOUS
10
2.469732125984252
20
-1.6670035826771654
11
2.4675483070866142
21
-1.6732446062992126
0
LINE
8
BLACK
6
CONTINUOUS
10
2.4675483070866142
20
-1.6732446062992126
11
2.4640304724409448
21
-1.678843188976378
0
LINE
8
BLACK
6
CONTINUOUS
10
2.4640304724409448
20
-1.678843188976378
11
2.4604809448818896
21
-1.6823926771653543
0
LINE
8
BLACK
6
CONTINUOUS
10
2.4604809448818896
20
-1.6823926771653543
11
2.4606142913385827
21
-1.8503937007874016
0
LINE
8
BLACK
6
CONTINUOUS
10
2.4606142913385827
20
-1.8503937007874016
11
3.1300720078740158
21
-1.8503937007874016
0
LINE
8
BLACK
6
CONTINUOUS
10
3.1300720078740158
20
-1.8503937007874016
11
3.1299385826771653
21
-1.682261062992126
0
LINE
8
BLACK
6
CONTINUOUS
10
3.1299385826771653
20
-1.682261062992126
11
3.1265207086614173
21
-1.678843188976378
0
LINE
8
BLACK
6
CONTINUOUS
10
3.1265207086614173
20
-1.678843188976378
11
3.1230028740157478
21
-1.6732446062992126
0
LINE
8
BLACK
6
CONTINUOUS
10
3.1230028740157478
20
-1.6732446062992126
11
3.1208190551181101
21
-1.6670035826771654
0
LINE
8
BLACK
6
CONTINUOUS
10
3.1208190551181101
20
-1.6670035826771654
11
3.1200787401574801
21
-1.6604330708661417
0
LINE
8
BLACK
6
CONTINUOUS
10
3.1200787401574801
20
-1.6604330708661417
11
3.1208190551181101
21
-1.6538625590551181
0
LINE
8
BLACK
6
CONTINUOUS
10
3.1208190551181101
20
-1.6538625590551181
11
3.1230028740157478
21
-1.6476215354330708
0
LINE
8
BLACK
6
CONTINUOUS
10
3.1230028740157478
20
-1.6476215354330708
11
3.1265207086614173
21
-1.6420229527559054
0
LINE
8
BLACK
6
CONTINUOUS
10
3.1265207086614173
20
-1.6420229527559054
11
3.1311961811023621
21
-1.6373474803149606
0
LINE
8
BLACK
6
CONTINUOUS
10
3.1311961811023621
20
-1.6373474803149606
11
3.1367947637795277
21
-1.6338296456692913
0
LINE
8
BLACK
6
CONTINUOUS
10
3.1367947637795277
20
-1.6338296456692913
11
3.1430357874015749
21
-1.6316458267716536
0
LINE
8
BLACK
6
CONTINUOUS
10
3.1430357874015749
20
-1.6316458267716536
11
3.1496062992125982
21
-1.6309055118110236
0
LINE
8
BLACK
6
CONTINUOUS
10
3.1496062992125982
20
-1.6309055118110236
11
3.1512771653543306
21
-1.6310937401574803
0
LINE
8
BLACK
6
CONTINUOUS
10
3.1512771653543306
20
-1.6310937401574803
11
3.1891403543307084
21
-1.5930820866141733
0
LINE
8
BLACK
6
CONTINUOUS
10
3.1891403543307084
20
-1.5930820866141733
11
3.1889796062992124
21
-1.1988749999999999
0
LINE
8
BLACK
6
CONTINUOUS
10
3.1889796062992124
20
-1.1988749999999999
11
3.0399215354330709
21
-1.0500355905511811
0
LINE
8
BLACK
6
CONTINUOUS
10
3.0399215354330709
20
-1.0500355905511811
11
2.81710062992126
21
-1.0501824409448819
0
LINE
8
BLACK
6
CONTINUOUS
10
2.81710062992126
20
-1.0501824409448819
11
2.8136857086614171
21
-1.0535974015748031
0
LINE
8
BLACK
6
CONTINUOUS
10
2.8136857086614171
20
-1.0535974015748031
11
2.8080871259842519
21
-1.0571152362204723
0
LINE
8
BLACK
6
CONTINUOUS
10
2.8080871259842519
20
-1.0571152362204723
11
2.8018461023622048
21
-1.0592990551181103
0
LINE
8
BLACK
6
CONTINUOUS
10
2.8018461023622048
20
-1.0592990551181103
11
2.795275590551181
21
-1.0600393700787401
0
LINE
8
BLACK
6
CONTINUOUS
10
2.795275590551181
20
-1.0600393700787401
11
2.7887050787401573
21
-1.0592990551181103
0
LINE
8
BLACK
6
CONTINUOUS
10
2.7887050787401573
20
-1.0592990551181103
11
2.7824640551181101
21
-1.0571152362204723
0
LINE
8
BLACK
6
CONTINUOUS
10
2.7824640551181101
20
-1.0571152362204723
11
2.7768654724409449
21
-1.0535974015748031
0
LINE
8
BLACK
6
CONTINUOUS
10
2.7768654724409449
20
-1.0535974015748031
11
2.7721900000000002
21
-1.0489219291338583
0
LINE
8
BLACK
6
CONTINUOUS
10
2.7721900000000002
20
-1.0489219291338583
11
2.7686721653543307
21
-1.0433233464566929
0
LINE
8
BLACK
6
CONTINUOUS
10
2.7686721653543307
20
-1.0433233464566929
11
2.7664883464566929
21
-1.0370823228346457
0
LINE
8
BLACK
6
CONTINUOUS
10
2.7664883464566929
20
-1.0370823228346457
11
2.765748031496063
21
-1.030511811023622
0
LINE
8
BLACK
6
CONTINUOUS
10
2.765748031496063
20
-1.030511811023622
11
2.7664883464566929
21
-1.0239412992125985
0
LINE
8
BLACK
6
CONTINUOUS
10
2.7664883464566929
20
-1.0239412992125985
11
2.7686721653543307
21
-1.0177002755905511
0
LINE
8
BLACK
6
CONTINUOUS
10
2.7686721653543307
20
-1.0177002755905511
11
2.7721900000000002
21
-1.0121016929133857
0
LINE
8
BLACK
6
CONTINUOUS
10
2.7721900000000002
20
-1.0121016929133857
11
2.7768654724409449
21
-1.0074262204724409
0
LINE
8
BLACK
6
CONTINUOUS
10
2.7768654724409449
20
-1.0074262204724409
11
2.7824640551181101
21
-1.0039083858267717
0
LINE
8
BLACK
6
CONTINUOUS
10
2.7824640551181101
20
-1.0039083858267717
11
2.7887050787401573
21
-1.0017245669291339
0
LINE
8
BLACK
6
CONTINUOUS
10
2.7887050787401573
20
-1.0017245669291339
11
2.795275590551181
21
-1.0009842519685039
0
LINE
8
BLACK
6
CONTINUOUS
10
2.795275590551181
20
-1.0009842519685039
11
2.8018461023622048
21
-1.0017245669291339
0
LINE
8
BLACK
6
CONTINUOUS
10
2.881496062992126
20
-0.9409448818897638
11
2.8317551968503936
21
-0.9409448818897638
0
LINE
8
BLACK
6
CONTINUOUS
10
2.8317551968503936
20
-0.9409448818897638
11
2.7360574409448817
21
-1.0368253937007874
0
LINE
8
BLACK
6
CONTINUOUS
10
2.7360574409448817
20
-1.0368253937007874
11
2.7360880708661415
21
-1.0985691338582677
0
LINE
8
BLACK
6
CONTINUOUS
10
2.7360880708661415
20
-1.0985691338582677
11
2.7369948425196848
21
-1.0983848425196849
0
LINE
8
BLACK
6
CONTINUOUS
10
2.7369948425196848
20
-1.0983848425196849
11
2.7602026771653541
21
-1.0952636614173228
0
LINE
8
BLACK
6
CONTINUOUS
10
2.7602026771653541
20
-1.0952636614173228
11
2.7835672047244095
21
-1.0936996062992126
0
LINE
8
BLACK
6
CONTINUOUS
10
2.7835672047244095
20
-1.0936996062992126
11
2.8069839763779525
21
-1.0936996062992126
0
LINE
8
BLACK
6
CONTINUOUS
10
2.8069839763779525
20
-1.0936996062992126
11
2.830348503937008
21
-1.0952636614173228
0
LINE
8
BLACK
6
CONTINUOUS
10
2.830348503937008
20
-1.0952636614173228
11
2.8535563385826772
21
-1.0983848425196849
0
LINE
8
BLACK
6
CONTINUOUS
10
2.8535563385826772
20
-1.0983848425196849
11
2.8765038976377952
21
-1.1030491338582677
0
LINE
8
BLACK
6
CONTINUOUS
10
2.8765038976377952
20
-1.1030491338582677
11
2.8990887007874013
21
-1.109235748031496
0
LINE
8
BLACK
6
CONTINUOUS
10
2.8990887007874013
20
-1.109235748031496
11
2.9212098031496061
21
-1.1169170472440944
0
LINE
8
BLACK
6
CONTINUOUS
10
2.9212098031496061
20
-1.1169170472440944
11
2.942768464566929
21
-1.1260587007874014
0
LINE
8
BLACK
6
CONTINUOUS
10
2.942768464566929
20
-1.1260587007874014
11
2.9636684251968504
21
-1.1366199212598425
0
LINE
8
BLACK
6
CONTINUOUS
10
2.9636684251968504
20
-1.1366199212598425
11
2.9838162598425195
21
-1.1485535039370078
0
LINE
8
BLACK
6
CONTINUOUS
10
2.9838162598425195
20
-1.1485535039370078
11
3.0031220472440943
21
-1.1618061811023621
0
LINE
8
BLACK
6
CONTINUOUS
10
3.0031220472440943
20
-1.1618061811023621
11
3.021499527559055
21
-1.1763187007874016
0
LINE
8
BLACK
6
CONTINUOUS
10
3.021499527559055
20
-1.1763187007874016
11
3.0388666535433071
21
-1.192026338582677
0
LINE
8
BLACK
6
CONTINUOUS
10
3.0388666535433071
20
-1.192026338582677
11
3.0551458267716534
21
-1.2088588976377952
0
LINE
8
BLACK
6
CONTINUOUS
10
3.0551458267716534
20
-1.2088588976377952
11
3.07026437007874
21
-1.2267411811023621
0
LINE
8
BLACK
6
CONTINUOUS
10
3.07026437007874
20
-1.2267411811023621
11
3.0841547244094487
21
-1.2455933464566928
0
LINE
8
BLACK
6
CONTINUOUS
10
3.0841547244094487
20
-1.2455933464566928
11
3.0967548818897637
21
-1.2653311811023622
0
LINE
8
BLACK
6
CONTINUOUS
10
3.0967548818897637
20
-1.2653311811023622
11
3.1080085826771651
21
-1.2858665354330709
0
LINE
8
BLACK
6
CONTINUOUS
10
3.1080085826771651
20
-1.2858665354330709
11
3.1178655118110234
21
-1.3071076771653543
0
LINE
8
BLACK
6
CONTINUOUS
10
3.1178655118110234
20
-1.3071076771653543
11
3.1262816929133859
21
-1.3289598031496064
0
LINE
8
BLACK
6
CONTINUOUS
10
3.1262816929133859
20
-1.3289598031496064
11
3.1332195275590551
21
-1.3513252362204724
0
LINE
8
BLACK
6
CONTINUOUS
10
3.1332195275590551
20
-1.3513252362204724
11
3.1386479921259842
21
-1.3741041338582678
0
LINE
8
BLACK
6
CONTINUOUS
10
3.1386479921259842
20
-1.3741041338582678
11
3.1425429133858267
21
-1.3971947244094487
0
LINE
8
BLACK
6
CONTINUOUS
10
3.1425429133858267
20
-1.3971947244094487
11
3.1448868110236221
21
-1.420493937007874
0
LINE
8
BLACK
6
CONTINUOUS
10
3.1448868110236221
20
-1.420493937007874
11
3.1456692913385824
21
-1.4438976377952755
0
LINE
8
BLACK
6
CONTINUOUS
10
3.1456692913385824
20
-1.4438976377952755
11
3.1448868110236221
21
-1.4673013385826772
0
LINE
8
BLACK
6
CONTINUOUS
10
3.1448868110236221
20
-1.4673013385826772
11
3.1425429133858267
21
-1.4906005511811022
0
LINE
8
BLACK
6
CONTINUOUS
10
3.1425429133858267
20
-1.4906005511811022
11
3.1386479921259842
21
-1.5136911417322834
0
LINE
8
BLACK
6
CONTINUOUS
10
3.1386479921259842
20
-1.5136911417322834
11
3.1332195275590551
21
-1.5364700393700788
0
LINE
8
BLACK
6
CONTINUOUS
10
3.1332195275590551
20
-1.5364700393700788
11
3.1262816929133859
21
-1.5588354724409448
0
LINE
8
BLACK
6
CONTINUOUS
10
3.1262816929133859
20
-1.5588354724409448
11
3.1178655118110234
21
-1.5806875984251969
0
LINE
8
BLACK
6
CONTINUOUS
10
3.1178655118110234
20
-1.5806875984251969
11
3.1080085826771651
21
-1.6019287401574802
0
LINE
8
BLACK
6
CONTINUOUS
10
3.1080085826771651
20
-1.6019287401574802
11
3.0967548818897637
21
-1.622464094488189
0
LINE
8
BLACK
6
CONTINUOUS
10
3.0967548818897637
20
-1.622464094488189
11
3.0841547244094487
21
-1.6422019291338583
0
LINE
8
BLACK
6
CONTINUOUS
10
3.0841547244094487
20
-1.6422019291338583
11
3.07026437007874
21
-1.6610540944881889
0
LINE
8
BLACK
6
CONTINUOUS
10
3.07026437007874
20
-1.6610540944881889
11
3.0551458267716534
21
-1.678936377952756
0
LINE
8
BLACK
6
CONTINUOUS
10
3.0551458267716534
20
-1.678936377952756
11
3.0388666535433071
21
-1.6957689370078739
0
LINE
8
BLACK
6
CONTINUOUS
10
3.0388666535433071
20
-1.6957689370078739
11
3.021499527559055
21
-1.7114765748031495
0
LINE
8
BLACK
6
CONTINUOUS
10
3.021499527559055
20
-1.7114765748031495
11
3.0031220472440943
21
-1.725989094488189
0
LINE
8
BLACK
6
CONTINUOUS
10
3.0031220472440943
20
-1.725989094488189
11
2.9838162598425195
21
-1.7392417716535433
0
LINE
8
BLACK
6
CONTINUOUS
10
2.9838162598425195
20
-1.7392417716535433
11
2.9636684251968504
21
-1.7511753543307087
0
LINE
8
BLACK
6
CONTINUOUS
10
2.9636684251968504
20
-1.7511753543307087
11
2.942768464566929
21
-1.7617365748031495
0
LINE
8
BLACK
6
CONTINUOUS
10
2.942768464566929
20
-1.7617365748031495
11
2.9212098031496061
21
-1.7708782283464566
0
LINE
8
BLACK
6
CONTINUOUS
10
2.9212098031496061
20
-1.7708782283464566
11
2.8990887007874013
21
-1.7785595275590551
0
LINE
8
BLACK
6
CONTINUOUS
10
2.8990887007874013
20
-1.7785595275590551
11
2.8765038976377952
21
-1.7847461417322834
0
LINE
8
BLACK
6
CONTINUOUS
10
2.8765038976377952
20
-1.7847461417322834
11
2.8535563385826772
21
-1.789410433070866
0
LINE
8
BLACK
6
CONTINUOUS
10
2.8535563385826772
20
-1.789410433070866
11
2.830348503937008
21
-1.7925316141732284
0
LINE
8
BLACK
6
CONTINUOUS
10
2.830348503937008
20
-1.7925316141732284
11
2.8069839763779525
21
-1.7940956692913386
0
LINE
8
BLACK
6
CONTINUOUS
10
2.8069839763779525
20
-1.7940956692913386
11
2.7835672047244095
21
-1.7940956692913386
0
LINE
8
BLACK
6
CONTINUOUS
10
2.7835672047244095
20
-1.7940956692913386
11
2.7602026771653541
21
-1.7925316141732284
0
LINE
8
BLACK
6
CONTINUOUS
10
2.7602026771653541
20
-1.7925316141732284
11
2.7369948425196848
21
-1.789410433070866
0
LINE
8
BLACK
6
CONTINUOUS
10
2.7369948425196848
20
-1.789410433070866
11
2.7140472834645668
21
-1.7847461417322834
0
LINE
8
BLACK
6
CONTINUOUS
10
2.7140472834645668
20
-1.7847461417322834
11
2.6914624803149607
21
-1.7785595275590551
0
LINE
8
BLACK
6
CONTINUOUS
10
2.6914624803149607
20
-1.7785595275590551
11
2.6693413779527559
21
-1.7708782283464566
0
LINE
8
BLACK
6
CONTINUOUS
10
2.6693413779527559
20
-1.7708782283464566
11
2.6477827165354331
21
-1.7617365748031495
0
LINE
8
BLACK
6
CONTINUOUS
10
2.6477827165354331
20
-1.7617365748031495
11
2.6268827559055117
21
-1.7511753543307087
0
LINE
8
BLACK
6
CONTINUOUS
10
2.6268827559055117
20
-1.7511753543307087
11
2.6067349212598425
21
-1.7392417716535433
0
LINE
8
BLACK
6
CONTINUOUS
10
2.6067349212598425
20
-1.7392417716535433
11
2.5874291338582678
21
-1.725989094488189
0
LINE
8
BLACK
6
CONTINUOUS
10
2.5874291338582678
20
-1.725989094488189
11
2.569051653543307
21
-1.7114765748031495
0
LINE
8
BLACK
6
CONTINUOUS
10
2.569051653543307
20
-1.7114765748031495
11
2.5516845275590549
21
-1.6957689370078739
0
LINE
8
BLACK
6
CONTINUOUS
10
2.5516845275590549
20
-1.6957689370078739
11
2.5354053543307087
21
-1.678936377952756
0
LINE
8
BLACK
6
CONTINUOUS
10
2.5354053543307087
20
-1.678936377952756
11
2.5202868110236221
21
-1.6610540944881889
0
LINE
8
BLACK
6
CONTINUOUS
10
2.5202868110236221
20
-1.6610540944881889
11
2.5063964566929133
21
-1.6422019291338583
0
LINE
8
BLACK
6
CONTINUOUS
10
2.5063964566929133
20
-1.6422019291338583
11
2.4937962992125984
21
-1.622464094488189
0
LINE
8
BLACK
6
CONTINUOUS
10
2.4937962992125984
20
-1.622464094488189
11
2.482542598425197
21
-1.6019287401574802
0
LINE
8
BLACK
6
CONTINUOUS
10
2.482542598425197
20
-1.6019287401574802
11
2.4726856692913386
21
-1.5806875984251969
0
LINE
8
BLACK
6
CONTINUOUS
10
2.4726856692913386
20
-1.5806875984251969
11
2.4642694881889762
21
-1.5588354724409448
0
LINE
8
BLACK
6
CONTINUOUS
10
2.4642694881889762
20
-1.5588354724409448
11
2.457331653543307
21
-1.5364700393700788
0
LINE
8
BLACK
6
CONTINUOUS
10
2.457331653543307
20
-1.5364700393700788
11
2.4519031889763778
21
-1.5136911417322834
0
LINE
8
BLACK
6
CONTINUOUS
10
2.4519031889763778
20
-1.5136911417322834
11
2.4480082677165353
21
-1.4906005511811022
0
LINE
8
BLACK
6
CONTINUOUS
10
2.4480082677165353
20
-1.4906005511811022
11
2.4456643700787399
21
-1.4673013385826772
0
LINE
8
BLACK
6
CONTINUOUS
10
2.4456643700787399
20
-1.4673013385826772
11
2.4448818897637796
21
-1.4438976377952755
0
LINE
8
BLACK
6
CONTINUOUS
10
2.4448818897637796
20
-1.4438976377952755
11
2.4456643700787399
21
-1.420493937007874
0
LINE
8
BLACK
6
CONTINUOUS
10
2.4456643700787399
20
-1.420493937007874
11
2.4480082677165353
21
-1.3971947244094487
0
LINE
8
BLACK
6
CONTINUOUS
10
2.4480082677165353
20
-1.3971947244094487
11
2.4519031889763778
21
-1.3741041338582678
0
LINE
8
BLACK
6
CONTINUOUS
10
2.4519031889763778
20
-1.3741041338582678
11
2.457331653543307
21
-1.3513252362204724
0
LINE
8
BLACK
6
CONTINUOUS
10
2.457331653543307
20
-1.3513252362204724
11
2.4642694881889762
21
-1.3289598031496064
0
LINE
8
BLACK
6
CONTINUOUS
10
2.4642694881889762
20
-1.3289598031496064
11
2.4726856692913386
21
-1.3071076771653543
0
LINE
8
BLACK
6
CONTINUOUS
10
2.4726856692913386
20
-1.3071076771653543
11
2.482542598425197
21
-1.2858665354330709
0
LINE
8
BLACK
6
CONTINUOUS
10
2.482542598425197
20
-1.2858665354330709
11
2.4937962992125984
21
-1.2653311811023622
0
LINE
8
BLACK
6
CONTINUOUS
10
2.4937962992125984
20
-1.2653311811023622
11
2.5063964566929133
21
-1.2455933464566928
0
LINE
8
BLACK
6
CONTINUOUS
10
2.5063964566929133
20
-1.2455933464566928
11
2.5202868110236221
21
-1.2267411811023621
0
LINE
8
BLACK
6
CONTINUOUS
10
2.5202868110236221
20
-1.2267411811023621
11
2.5354053543307087
21
-1.2088588976377952
0
LINE
8
BLACK
6
CONTINUOUS
10
2.5354053543307087
20
-1.2088588976377952
11
2.5516845275590549
21
-1.192026338582677
0
LINE
8
BLACK
6
CONTINUOUS
10
2.5516845275590549
20
-1.192026338582677
11
2.569051653543307
21
-1.1763187007874016
0
LINE
8
BLACK
6
CONTINUOUS
10
2.569051653543307
20
-1.1763187007874016
11
2.5874291338582678
21
-1.1618061811023621
0
LINE
8
BLACK
6
CONTINUOUS
10
2.5874291338582678
20
-1.1618061811023621
11
2.6067349212598425
21
-1.1485535039370078
0
LINE
8
BLACK
6
CONTINUOUS
10
2.6067349212598425
20
-1.1485535039370078
11
2.6268827559055117
21
-1.1366199212598425
0
LINE
8
BLACK
6
CONTINUOUS
10
2.6268827559055117
20
-1.1366199212598425
11
2.6477827165354331
21
-1.1260587007874014
0
LINE
8
BLACK
6
CONTINUOUS
10
2.6477827165354331
20
-1.1260587007874014
11
2.6693413779527559
21
-1.1169170472440944
0
LINE
8
BLACK
6
CONTINUOUS
10
2.6693413779527559
20
-1.1169170472440944
11
2.6914624803149607
21
-1.109235748031496
0
LINE
8
BLACK
6
CONTINUOUS
10
2.6914624803149607
20
-1.109235748031496
11
2.696889724409449
21
-1.1077490551181102
0
LINE
8
BLACK
6
CONTINUOUS
10
2.696889724409449
20
-1.1077490551181102
11
2.6968503937007875
21
-1.0285192913385826
0
LINE
8
BLACK
6
CONTINUOUS
10
2.6968503937007875
20
-1.0285192913385826
11
2.6970187795275589
21
-1.0259504724409449
0
LINE
8
BLACK
6
CONTINUOUS
10
2.6970187795275589
20
-1.0259504724409449
11
2.6970187795275589
21
-1.0259498818897637
0
LINE
8
BLACK
6
CONTINUOUS
10
2.6970187795275589
20
-1.0259498818897637
11
2.6983488188976379
21
-1.0209861417322834
0
LINE
8
BLACK
6
CONTINUOUS
10
2.6983488188976379
20
-1.0209861417322834
11
2.7009182283464566
21
-1.0165357874015748
0
LINE
8
BLACK
6
CONTINUOUS
10
2.7009182283464566
20
-1.0165357874015748
11
2.7009594488188977
21
-1.0164945275590551
0
LINE
8
BLACK
6
CONTINUOUS
10
2.7009594488188977
20
-1.0164945275590551
11
2.8106299212598422
21
-0.9066145669291339
0
LINE
8
BLACK
6
CONTINUOUS
10
2.8106299212598422
20
-0.9066145669291339
11
2.8106299212598422
21
-0.8700787401574803
0
LINE
8
BLACK
6
CONTINUOUS
10
2.8106299212598422
20
-0.8700787401574803
11
2.881496062992126
21
-0.8700787401574803
0
LINE
8
BLACK
6
CONTINUOUS
10
2.881496062992126
20
-0.8700787401574803
11
2.881496062992126
21
-0.9409448818897638
  0
ENDSEC
  0
EOF
