  0
SECTION
  2
HEADER
  9
$ANGBASE
  50
0.0
  9
$ANGDIR
  70
1
  9
$MEASUREMENT
  70
0
  0
ENDSEC
  0
SECTION
  2
TABLES
  0
TABLE
  2
LTYPE
  70
4
  0
LTYPE
  5
40F
  2
CONTINUOUS
  70
0
  3
Solid line
  72
65
  73
0
  40
0.0
  0
LTYPE
  5
410
  2
DASHDOT
 70
0
  3
Dash Dot ____ _ ____ _
 72
65
 73
4
 40
2.0
 49
1.25
 49
-0.25
 49
0.25
 49
-0.25
  0
LTYPE
  5
411
  2
DASHED
 70
0
  3
Dashed __ __ __ __ __
 72
65
 73
2
 40
0.75
 49
0.5
 49
-0.25
  0
LTYPE
  5
43B
  2
DOTTED
 70
0
  3
Dotted .  .  .  .
 72
65
 73
2
 40
0.2
 49
0.0
 49
-0.2
  0
ENDTAB
  0
TABLE
  2
STYLE
  70
4
  0
STYLE
  2
KICAD
  70
0
  40
0
  41
1
  42
1
  50
0
  71
0
  3
isocp.shx
  0
STYLE
  2
KICADB
  70
0
  40
0
  41
1
  42
1
  50
0
  71
0
  3
isocp.shx
  0
STYLE
  2
KICADI
  70
0
  40
0
  41
1
  42
1
  50
15
  71
0
  3
isocp.shx
  0
STYLE
  2
KICADBI
  70
0
  40
0
  41
1
  42
1
  50
15
  71
0
  3
isocp.shx
  0
ENDTAB
  0
TABLE
  2
LAYER
  70
1
  0
LAYER
  2
BLACK
  70
0
  62
7
  6
CONTINUOUS
  0
ENDTAB
  0
ENDSEC
  0
SECTION
  2
ENTITIES
0
LINE
8
BLACK
6
CONTINUOUS
10
3.1993825196850394
20
-0.6689891338582677
11
3.2096105905511809
21
-0.6710236220472441
0
LINE
8
BLACK
6
CONTINUOUS
10
3.2096105905511809
20
-0.6710236220472441
11
3.219485590551181
21
-0.674375748031496
0
LINE
8
BLACK
6
CONTINUOUS
10
3.219485590551181
20
-0.674375748031496
11
3.2288385826771653
21
-0.6789881496062992
0
LINE
8
BLACK
6
CONTINUOUS
10
3.2288385826771653
20
-0.6789881496062992
11
3.2375095275590549
21
-0.6847818503937008
0
LINE
8
BLACK
6
CONTINUOUS
10
3.2375095275590549
20
-0.6847818503937008
11
3.2453500393700785
21
-0.6916578346456693
0
LINE
8
BLACK
6
CONTINUOUS
10
3.2453500393700785
20
-0.6916578346456693
11
3.2522260236220473
21
-0.6994983464566928
0
LINE
8
BLACK
6
CONTINUOUS
10
3.2522260236220473
20
-0.6994983464566928
11
3.2580197244094489
21
-0.7081692913385826
0
LINE
8
BLACK
6
CONTINUOUS
10
3.2580197244094489
20
-0.7081692913385826
11
3.2626321259842519
21
-0.7175222834645669
0
LINE
8
BLACK
6
CONTINUOUS
10
3.2626321259842519
20
-0.7175222834645669
11
3.2659842519685038
21
-0.7273972834645669
0
LINE
8
BLACK
6
CONTINUOUS
10
3.2659842519685038
20
-0.7273972834645669
11
3.2680187401574803
21
-0.7376253543307086
0
LINE
8
BLACK
6
CONTINUOUS
10
3.2680187401574803
20
-0.7376253543307086
11
3.2687007874015745
21
-0.7480314960629921
0
LINE
8
BLACK
6
CONTINUOUS
10
3.2687007874015745
20
-0.7480314960629921
11
3.2686258661417322
21
-0.748261968503937
0
LINE
8
BLACK
6
CONTINUOUS
10
3.2686258661417322
20
-0.748261968503937
11
3.2687007874015745
21
-2.5590551181102361
0
LINE
8
BLACK
6
CONTINUOUS
10
3.2687007874015745
20
-2.5590551181102361
11
3.2680187401574803
21
-2.5694612598425195
0
LINE
8
BLACK
6
CONTINUOUS
10
3.2680187401574803
20
-2.5694612598425195
11
3.2659842519685038
21
-2.5796893307086615
0
LINE
8
BLACK
6
CONTINUOUS
10
3.2659842519685038
20
-2.5796893307086615
11
3.2626321259842519
21
-2.5895643307086615
0
LINE
8
BLACK
6
CONTINUOUS
10
3.2626321259842519
20
-2.5895643307086615
11
3.2580197244094489
21
-2.5989173228346458
0
LINE
8
BLACK
6
CONTINUOUS
10
3.2580197244094489
20
-2.5989173228346458
11
3.2522260236220473
21
-2.6075882677165354
0
LINE
8
BLACK
6
CONTINUOUS
10
3.2522260236220473
20
-2.6075882677165354
11
3.2453500393700785
21
-2.615428779527559
0
LINE
8
BLACK
6
CONTINUOUS
10
3.2453500393700785
20
-2.615428779527559
11
3.2375095275590549
21
-2.6223047637795274
0
LINE
8
BLACK
6
CONTINUOUS
10
3.2375095275590549
20
-2.6223047637795274
11
3.2288385826771653
21
-2.628098464566929
0
LINE
8
BLACK
6
CONTINUOUS
10
3.2288385826771653
20
-2.628098464566929
11
3.219485590551181
21
-2.6327108661417324
0
LINE
8
BLACK
6
CONTINUOUS
10
3.219485590551181
20
-2.6327108661417324
11
3.2096105905511809
21
-2.6360629921259844
0
LINE
8
BLACK
6
CONTINUOUS
10
3.2096105905511809
20
-2.6360629921259844
11
3.1993825196850394
21
-2.6380974803149604
0
LINE
8
BLACK
6
CONTINUOUS
10
3.1993825196850394
20
-2.6380974803149604
11
3.188976377952756
21
-2.6387795275590551
0
LINE
8
BLACK
6
CONTINUOUS
10
3.188976377952756
20
-2.6387795275590551
11
3.1887459842519683
21
-2.6387046456692911
0
LINE
8
BLACK
6
CONTINUOUS
10
3.1887459842519683
20
-2.6387046456692911
11
2.401574803149606
21
-2.6387795275590551
0
LINE
8
BLACK
6
CONTINUOUS
10
2.401574803149606
20
-2.6387795275590551
11
2.3911686614173226
21
-2.6380974803149604
0
LINE
8
BLACK
6
CONTINUOUS
10
2.3911686614173226
20
-2.6380974803149604
11
2.3809405905511811
21
-2.6360629921259844
0
LINE
8
BLACK
6
CONTINUOUS
10
2.3809405905511811
20
-2.6360629921259844
11
2.371065590551181
21
-2.6327108661417324
0
LINE
8
BLACK
6
CONTINUOUS
10
2.371065590551181
20
-2.6327108661417324
11
2.3617125984251968
21
-2.628098464566929
0
LINE
8
BLACK
6
CONTINUOUS
10
2.3617125984251968
20
-2.628098464566929
11
2.3530416535433072
21
-2.6223047637795274
0
LINE
8
BLACK
6
CONTINUOUS
10
2.3530416535433072
20
-2.6223047637795274
11
2.3452011417322836
21
-2.615428779527559
0
LINE
8
BLACK
6
CONTINUOUS
10
2.3452011417322836
20
-2.615428779527559
11
2.3383251574803148
21
-2.6075882677165354
0
LINE
8
BLACK
6
CONTINUOUS
10
2.3383251574803148
20
-2.6075882677165354
11
2.3325314566929132
21
-2.5989173228346458
0
LINE
8
BLACK
6
CONTINUOUS
10
2.3325314566929132
20
-2.5989173228346458
11
2.3279190551181101
21
-2.5895643307086615
0
LINE
8
BLACK
6
CONTINUOUS
10
2.3279190551181101
20
-2.5895643307086615
11
2.3245669291338582
21
-2.5796893307086615
0
LINE
8
BLACK
6
CONTINUOUS
10
2.3245669291338582
20
-2.5796893307086615
11
2.3225324409448818
21
-2.5694612598425195
0
LINE
8
BLACK
6
CONTINUOUS
10
2.3225324409448818
20
-2.5694612598425195
11
2.3218503937007875
21
-2.5590551181102361
0
LINE
8
BLACK
6
CONTINUOUS
10
2.3218503937007875
20
-2.5590551181102361
11
2.3219252755905511
21
-2.5588246062992126
0
LINE
8
BLACK
6
CONTINUOUS
10
2.3219252755905511
20
-2.5588246062992126
11
2.3218503937007875
21
-0.7480314960629921
0
LINE
8
BLACK
6
CONTINUOUS
10
2.3218503937007875
20
-0.7480314960629921
11
2.3225324409448818
21
-0.7376253543307086
0
LINE
8
BLACK
6
CONTINUOUS
10
2.3225324409448818
20
-0.7376253543307086
11
2.3245669291338582
21
-0.7273972834645669
0
LINE
8
BLACK
6
CONTINUOUS
10
2.3245669291338582
20
-0.7273972834645669
11
2.3279190551181101
21
-0.7175222834645669
0
LINE
8
BLACK
6
CONTINUOUS
10
2.3279190551181101
20
-0.7175222834645669
11
2.3325314566929132
21
-0.7081692913385826
0
LINE
8
BLACK
6
CONTINUOUS
10
2.3325314566929132
20
-0.7081692913385826
11
2.3383251574803148
21
-0.6994983464566928
0
LINE
8
BLACK
6
CONTINUOUS
10
2.3383251574803148
20
-0.6994983464566928
11
2.3452011417322836
21
-0.6916578346456693
0
LINE
8
BLACK
6
CONTINUOUS
10
2.3452011417322836
20
-0.6916578346456693
11
2.3530416535433072
21
-0.6847818503937008
0
LINE
8
BLACK
6
CONTINUOUS
10
2.3530416535433072
20
-0.6847818503937008
11
2.3617125984251968
21
-0.6789881496062992
0
LINE
8
BLACK
6
CONTINUOUS
10
2.3617125984251968
20
-0.6789881496062992
11
2.371065590551181
21
-0.674375748031496
0
LINE
8
BLACK
6
CONTINUOUS
10
2.371065590551181
20
-0.674375748031496
11
2.3809405905511811
21
-0.6710236220472441
0
LINE
8
BLACK
6
CONTINUOUS
10
2.3809405905511811
20
-0.6710236220472441
11
2.3911686614173226
21
-0.6689891338582677
0
LINE
8
BLACK
6
CONTINUOUS
10
2.3911686614173226
20
-0.6689891338582677
11
2.401574803149606
21
-0.6683070866141733
0
LINE
8
BLACK
6
CONTINUOUS
10
2.401574803149606
20
-0.6683070866141733
11
2.401804842519685
21
-0.668381811023622
0
LINE
8
BLACK
6
CONTINUOUS
10
2.401804842519685
20
-0.668381811023622
11
2.6771653543307088
21
-0.6683070866141733
0
LINE
8
BLACK
6
CONTINUOUS
10
2.6771653543307088
20
-0.6683070866141733
11
2.6775420078740155
21
-0.6683820078740157
0
LINE
8
BLACK
6
CONTINUOUS
10
2.6775420078740155
20
-0.6683820078740157
11
2.6780746850393702
21
-0.66891468503937
0
LINE
8
BLACK
6
CONTINUOUS
10
2.6780746850393702
20
-0.66891468503937
11
2.6781492519685037
21
-0.865231968503937
0
LINE
8
BLACK
6
CONTINUOUS
10
2.6781492519685037
20
-0.865231968503937
11
2.9124759448818898
21
-0.8651577559055118
0
LINE
8
BLACK
6
CONTINUOUS
10
2.9124759448818898
20
-0.8651577559055118
11
2.9124015748031495
21
-0.6692913385826772
0
LINE
8
BLACK
6
CONTINUOUS
10
2.9124015748031495
20
-0.6692913385826772
11
2.9124764960629919
21
-0.66891468503937
0
LINE
8
BLACK
6
CONTINUOUS
10
2.9124764960629919
20
-0.66891468503937
11
2.9130091732283465
21
-0.6683820078740157
0
LINE
8
BLACK
6
CONTINUOUS
10
2.9130091732283465
20
-0.6683820078740157
11
3.188976377952756
21
-0.6683070866141733
0
LINE
8
BLACK
6
CONTINUOUS
10
3.188976377952756
20
-0.6683070866141733
11
3.1993825196850394
21
-0.6689891338582677
0
LINE
8
BLACK
6
CONTINUOUS
10
2.9142956692913384
20
-0.6702753149606299
11
2.9143700787401574
21
-0.8661417322834646
0
LINE
8
BLACK
6
CONTINUOUS
10
2.9143700787401574
20
-0.8661417322834646
11
2.9142951574803151
21
-0.8665183858267717
0
LINE
8
BLACK
6
CONTINUOUS
10
2.9142951574803151
20
-0.8665183858267717
11
2.9137624803149604
21
-0.867051062992126
0
LINE
8
BLACK
6
CONTINUOUS
10
2.9137624803149604
20
-0.867051062992126
11
2.6771653543307088
21
-0.8671259842519685
0
LINE
8
BLACK
6
CONTINUOUS
10
2.6771653543307088
20
-0.8671259842519685
11
2.6767887007874016
21
-0.867051062992126
0
LINE
8
BLACK
6
CONTINUOUS
10
2.6767887007874016
20
-0.867051062992126
11
2.6762560236220474
21
-0.8665183858267717
0
LINE
8
BLACK
6
CONTINUOUS
10
2.6762560236220474
20
-0.8665183858267717
11
2.6761814173228347
21
-0.6702010236220473
0
LINE
8
BLACK
6
CONTINUOUS
10
2.6761814173228347
20
-0.6702010236220473
11
2.401574803149606
21
-0.6702755905511811
0
LINE
8
BLACK
6
CONTINUOUS
10
2.401574803149606
20
-0.6702755905511811
11
2.3964784251968503
21
-0.6702755905511811
0
LINE
8
BLACK
6
CONTINUOUS
10
2.3964784251968503
20
-0.6702755905511811
11
2.3863728346456692
21
-0.6716060236220472
0
LINE
8
BLACK
6
CONTINUOUS
10
2.3863728346456692
20
-0.6716060236220472
11
2.3765273622047243
21
-0.674244094488189
0
LINE
8
BLACK
6
CONTINUOUS
10
2.3765273622047243
20
-0.674244094488189
11
2.3671104330708661
21
-0.6781446850393701
0
LINE
8
BLACK
6
CONTINUOUS
10
2.3671104330708661
20
-0.6781446850393701
11
2.3582832283464565
21
-0.6832411023622047
0
LINE
8
BLACK
6
CONTINUOUS
10
2.3582832283464565
20
-0.6832411023622047
11
2.3501967716535432
21
-0.689446062992126
0
LINE
8
BLACK
6
CONTINUOUS
10
2.3501967716535432
20
-0.689446062992126
11
2.3429893700787403
21
-0.6966534645669291
0
LINE
8
BLACK
6
CONTINUOUS
10
2.3429893700787403
20
-0.6966534645669291
11
2.336784409448819
21
-0.7047399212598425
0
LINE
8
BLACK
6
CONTINUOUS
10
2.336784409448819
20
-0.7047399212598425
11
2.3316879921259841
21
-0.713567125984252
0
LINE
8
BLACK
6
CONTINUOUS
10
2.3316879921259841
20
-0.713567125984252
11
2.327787401574803
21
-0.7229840551181103
0
LINE
8
BLACK
6
CONTINUOUS
10
2.327787401574803
20
-0.7229840551181103
11
2.3251493307086615
21
-0.7328295275590551
0
LINE
8
BLACK
6
CONTINUOUS
10
2.3251493307086615
20
-0.7328295275590551
11
2.3238188976377954
21
-0.7429351181102362
0
LINE
8
BLACK
6
CONTINUOUS
10
2.3238188976377954
20
-0.7429351181102362
11
2.3238188976377954
21
-0.7480314960629921
0
LINE
8
BLACK
6
CONTINUOUS
10
2.3238188976377954
20
-0.7480314960629921
11
2.3237439763779526
21
-0.748261968503937
0
LINE
8
BLACK
6
CONTINUOUS
10
2.3237439763779526
20
-0.748261968503937
11
2.3238188976377954
21
-2.5590551181102361
0
LINE
8
BLACK
6
CONTINUOUS
10
2.3238188976377954
20
-2.5590551181102361
11
2.3238188976377954
21
-2.5641514960629919
0
LINE
8
BLACK
6
CONTINUOUS
10
2.3238188976377954
20
-2.5641514960629919
11
2.3251493307086615
21
-2.574257086614173
0
LINE
8
BLACK
6
CONTINUOUS
10
2.3251493307086615
20
-2.574257086614173
11
2.327787401574803
21
-2.5841025590551179
0
LINE
8
BLACK
6
CONTINUOUS
10
2.327787401574803
20
-2.5841025590551179
11
2.3316879921259841
21
-2.5935194881889765
0
LINE
8
BLACK
6
CONTINUOUS
10
2.3316879921259841
20
-2.5935194881889765
11
2.336784409448819
21
-2.6023466929133856
0
LINE
8
BLACK
6
CONTINUOUS
10
2.336784409448819
20
-2.6023466929133856
11
2.3429893700787403
21
-2.6104331496062994
0
LINE
8
BLACK
6
CONTINUOUS
10
2.3429893700787403
20
-2.6104331496062994
11
2.3501967716535432
21
-2.6176405511811023
0
LINE
8
BLACK
6
CONTINUOUS
10
2.3501967716535432
20
-2.6176405511811023
11
2.3582832283464565
21
-2.6238455118110235
0
LINE
8
BLACK
6
CONTINUOUS
10
2.3582832283464565
20
-2.6238455118110235
11
2.3671104330708661
21
-2.628941929133858
0
LINE
8
BLACK
6
CONTINUOUS
10
2.3671104330708661
20
-2.628941929133858
11
2.3765273622047243
21
-2.6328425196850391
0
LINE
8
BLACK
6
CONTINUOUS
10
2.3765273622047243
20
-2.6328425196850391
11
2.3863728346456692
21
-2.6354805905511811
0
LINE
8
BLACK
6
CONTINUOUS
10
2.3863728346456692
20
-2.6354805905511811
11
2.3964784251968503
21
-2.6368110236220472
0
LINE
8
BLACK
6
CONTINUOUS
10
2.3964784251968503
20
-2.6368110236220472
11
2.401574803149606
21
-2.6368110236220472
0
LINE
8
BLACK
6
CONTINUOUS
10
2.401574803149606
20
-2.6368110236220472
11
2.401805157480315
21
-2.636885866141732
0
LINE
8
BLACK
6
CONTINUOUS
10
2.401805157480315
20
-2.636885866141732
11
3.188976377952756
21
-2.6368110236220472
0
LINE
8
BLACK
6
CONTINUOUS
10
3.188976377952756
20
-2.6368110236220472
11
3.1940727559055118
21
-2.6368110236220472
0
LINE
8
BLACK
6
CONTINUOUS
10
3.1940727559055118
20
-2.6368110236220472
11
3.2041783464566929
21
-2.6354805905511811
0
LINE
8
BLACK
6
CONTINUOUS
10
3.2041783464566929
20
-2.6354805905511811
11
3.2140238188976378
21
-2.6328425196850391
0
LINE
8
BLACK
6
CONTINUOUS
10
3.2140238188976378
20
-2.6328425196850391
11
3.2234407480314959
21
-2.628941929133858
0
LINE
8
BLACK
6
CONTINUOUS
10
3.2234407480314959
20
-2.628941929133858
11
3.2322679527559055
21
-2.6238455118110235
0
LINE
8
BLACK
6
CONTINUOUS
10
3.2322679527559055
20
-2.6238455118110235
11
3.2403544094488188
21
-2.6176405511811023
0
LINE
8
BLACK
6
CONTINUOUS
10
3.2403544094488188
20
-2.6176405511811023
11
3.2475618110236222
21
-2.6104331496062994
0
LINE
8
BLACK
6
CONTINUOUS
10
3.2475618110236222
20
-2.6104331496062994
11
3.2537667716535434
21
-2.6023466929133856
0
LINE
8
BLACK
6
CONTINUOUS
10
3.2537667716535434
20
-2.6023466929133856
11
3.2588631889763779
21
-2.5935194881889765
0
LINE
8
BLACK
6
CONTINUOUS
10
3.2588631889763779
20
-2.5935194881889765
11
3.262763779527559
21
-2.5841025590551179
0
LINE
8
BLACK
6
CONTINUOUS
10
3.262763779527559
20
-2.5841025590551179
11
3.2654018503937006
21
-2.574257086614173
0
LINE
8
BLACK
6
CONTINUOUS
10
3.2654018503937006
20
-2.574257086614173
11
3.2667322834645667
21
-2.5641514960629919
0
LINE
8
BLACK
6
CONTINUOUS
10
3.2667322834645667
20
-2.5641514960629919
11
3.2667322834645667
21
-2.5590551181102361
0
LINE
8
BLACK
6
CONTINUOUS
10
3.2667322834645667
20
-2.5590551181102361
11
3.2668071653543307
21
-2.5588246062992126
0
LINE
8
BLACK
6
CONTINUOUS
10
3.2668071653543307
20
-2.5588246062992126
11
3.2667322834645667
21
-0.7480314960629921
0
LINE
8
BLACK
6
CONTINUOUS
10
3.2667322834645667
20
-0.7480314960629921
11
3.2667322834645667
21
-0.7429351181102362
0
LINE
8
BLACK
6
CONTINUOUS
10
3.2667322834645667
20
-0.7429351181102362
11
3.2654018503937006
21
-0.7328295275590551
0
LINE
8
BLACK
6
CONTINUOUS
10
3.2654018503937006
20
-0.7328295275590551
11
3.262763779527559
21
-0.7229840551181103
0
LINE
8
BLACK
6
CONTINUOUS
10
3.262763779527559
20
-0.7229840551181103
11
3.2588631889763779
21
-0.713567125984252
0
LINE
8
BLACK
6
CONTINUOUS
10
3.2588631889763779
20
-0.713567125984252
11
3.2537667716535434
21
-0.7047399212598425
0
LINE
8
BLACK
6
CONTINUOUS
10
3.2537667716535434
20
-0.7047399212598425
11
3.2475618110236222
21
-0.6966534645669291
0
LINE
8
BLACK
6
CONTINUOUS
10
3.2475618110236222
20
-0.6966534645669291
11
3.2403544094488188
21
-0.689446062992126
0
LINE
8
BLACK
6
CONTINUOUS
10
3.2403544094488188
20
-0.689446062992126
11
3.2322679527559055
21
-0.6832411023622047
0
LINE
8
BLACK
6
CONTINUOUS
10
3.2322679527559055
20
-0.6832411023622047
11
3.2234407480314959
21
-0.6781446850393701
0
LINE
8
BLACK
6
CONTINUOUS
10
3.2234407480314959
20
-0.6781446850393701
11
3.2140238188976378
21
-0.674244094488189
0
LINE
8
BLACK
6
CONTINUOUS
10
3.2140238188976378
20
-0.674244094488189
11
3.2041783464566929
21
-0.6716060236220472
0
LINE
8
BLACK
6
CONTINUOUS
10
3.2041783464566929
20
-0.6716060236220472
11
3.1940727559055118
21
-0.6702755905511811
0
LINE
8
BLACK
6
CONTINUOUS
10
3.1940727559055118
20
-0.6702755905511811
11
3.188976377952756
21
-0.6702755905511811
0
LINE
8
BLACK
6
CONTINUOUS
10
3.188976377952756
20
-0.6702755905511811
11
3.1887462992125983
21
-0.6702008267716535
0
LINE
8
BLACK
6
CONTINUOUS
10
3.1887462992125983
20
-0.6702008267716535
11
2.9142956692913384
21
-0.6702753149606299
  0
ENDSEC
  0
EOF
