<?xml version="1.0" standalone="no"?>
 <!DOCTYPE svg PUBLIC "-//W3C//DTD SVG 1.1//EN" 
 "http://www.w3.org/Graphics/SVG/1.1/DTD/svg11.dtd"> 
<svg
  xmlns:svg="http://www.w3.org/2000/svg"
  xmlns="http://www.w3.org/2000/svg"
  xmlns:xlink="http://www.w3.org/1999/xlink"
  version="1.1"
  width="297.0022mm" height="210.0072mm" viewBox="0.0000 0.0000 297.0022 210.0072">
<title>SVG Image created as HIT2024-Edge_Cuts.svg date 2024/05/30 16:29:27 </title>
  <desc>Image generated by PCBNEW </desc>
<g style="fill:#000000; fill-opacity:1.0000;stroke:#000000; stroke-opacity:1.0000;
stroke-linecap:round; stroke-linejoin:round;"
 transform="translate(0 0) scale(1 1)">
</g>
<g style="fill:none; 
stroke:#000000; stroke-width:0.0500; stroke-opacity:1; 
stroke-linecap:round; stroke-linejoin:round;">
<path d="M83.0000 65.0000
L83.0000 19.0000
" />
<path d="M61.0000 67.0000
L81.0000 67.0000
" />
<path d="M59.0000 19.0000
L59.0000 65.0000
" />
<path d="M68.0000 22.0000
L68.0000 17.0000
" />
<path d="M74.0000 22.0000
L68.0000 22.0000
" />
<path d="M74.0000 17.0000
L74.0000 22.0000
" />
<path d="M81.0000 17.0000
L74.0000 17.0000
" />
<path d="M61.0000 17.0000
L68.0000 17.0000
" />
<path d="M83.0000 19.0000 A2.0000 2.0000 0.0 0 0 81.0000 17.0000" />
<path d="M61.0000 17.0000 A2.0000 2.0000 0.0 0 0 59.0000 19.0000" />
<path d="M59.0000 65.0000 A2.0000 2.0000 0.0 0 0 61.0000 67.0000" />
<path d="M81.0000 67.0000 A2.0000 2.0000 0.0 0 0 83.0000 65.0000" />
</g> 
</svg>
