<?xml version="1.0" standalone="no"?>
 <!DOCTYPE svg PUBLIC "-//W3C//DTD SVG 1.1//EN" 
 "http://www.w3.org/Graphics/SVG/1.1/DTD/svg11.dtd"> 
<svg
  xmlns:svg="http://www.w3.org/2000/svg"
  xmlns="http://www.w3.org/2000/svg"
  xmlns:xlink="http://www.w3.org/1999/xlink"
  version="1.1"
  width="297.0022mm" height="210.0072mm" viewBox="0.0000 0.0000 297.0022 210.0072">
<title>SVG Image created as HIT2024-F_Cu.svg date 2024/05/30 16:29:27 </title>
  <desc>Image generated by PCBNEW </desc>
<g style="fill:#000000; fill-opacity:1.0000;stroke:#000000; stroke-opacity:1.0000;
stroke-linecap:round; stroke-linejoin:round;"
 transform="translate(0 0) scale(1 1)">
<path style="fill:#000000; fill-opacity:1.0000; stroke:none;fill-rule:evenodd;"
d="M 61.2500,66.0000
61.1543,65.9810
61.0732,65.9268
61.0190,65.8457
61.0000,65.7500
61.0000,65.2500
61.0190,65.1543
61.0732,65.0732
61.1543,65.0190
61.2500,65.0000
80.7500,65.0000
80.8457,65.0190
80.9268,65.0732
80.9810,65.1543
81.0000,65.2500
81.0000,65.7500
80.9810,65.8457
80.9268,65.9268
80.8457,65.9810
80.7500,66.0000
Z" /> 
<path style="fill:#000000; fill-opacity:1.0000; stroke:none;fill-rule:evenodd;"
d="M 61.5000,65.7500
61.4810,65.8457
61.4268,65.9268
61.3457,65.9810
61.2500,66.0000
60.7500,66.0000
60.6543,65.9810
60.5732,65.9268
60.5190,65.8457
60.5000,65.7500
60.5000,49.2500
60.5190,49.1543
60.5732,49.0732
60.6543,49.0190
60.7500,49.0000
61.2500,49.0000
61.3457,49.0190
61.4268,49.0732
61.4810,49.1543
61.5000,49.2500
Z" /> 
<path style="fill:#000000; fill-opacity:1.0000; stroke:none;fill-rule:evenodd;"
d="M 65.5000,65.7500
65.4810,65.8457
65.4268,65.9268
65.3457,65.9810
65.2500,66.0000
64.7500,66.0000
64.6543,65.9810
64.5732,65.9268
64.5190,65.8457
64.5000,65.7500
64.5000,49.2500
64.5190,49.1543
64.5732,49.0732
64.6543,49.0190
64.7500,49.0000
65.2500,49.0000
65.3457,49.0190
65.4268,49.0732
65.4810,49.1543
65.5000,49.2500
Z" /> 
<path style="fill:#000000; fill-opacity:1.0000; stroke:none;fill-rule:evenodd;"
d="M 69.5000,65.7500
69.4810,65.8457
69.4268,65.9268
69.3457,65.9810
69.2500,66.0000
68.7500,66.0000
68.6543,65.9810
68.5732,65.9268
68.5190,65.8457
68.5000,65.7500
68.5000,49.2500
68.5190,49.1543
68.5732,49.0732
68.6543,49.0190
68.7500,49.0000
69.2500,49.0000
69.3457,49.0190
69.4268,49.0732
69.4810,49.1543
69.5000,49.2500
Z" /> 
<path style="fill:#000000; fill-opacity:1.0000; stroke:none;fill-rule:evenodd;"
d="M 73.5000,65.7500
73.4810,65.8457
73.4268,65.9268
73.3457,65.9810
73.2500,66.0000
72.7500,66.0000
72.6543,65.9810
72.5732,65.9268
72.5190,65.8457
72.5000,65.7500
72.5000,49.2500
72.5190,49.1543
72.5732,49.0732
72.6543,49.0190
72.7500,49.0000
73.2500,49.0000
73.3457,49.0190
73.4268,49.0732
73.4810,49.1543
73.5000,49.2500
Z" /> 
<path style="fill:#000000; fill-opacity:1.0000; stroke:none;fill-rule:evenodd;"
d="M 77.5000,65.7500
77.4810,65.8457
77.4268,65.9268
77.3457,65.9810
77.2500,66.0000
76.7500,66.0000
76.6543,65.9810
76.5732,65.9268
76.5190,65.8457
76.5000,65.7500
76.5000,49.2500
76.5190,49.1543
76.5732,49.0732
76.6543,49.0190
76.7500,49.0000
77.2500,49.0000
77.3457,49.0190
77.4268,49.0732
77.4810,49.1543
77.5000,49.2500
Z" /> 
<path style="fill:#000000; fill-opacity:1.0000; stroke:none;fill-rule:evenodd;"
d="M 81.5000,65.7500
81.4810,65.8457
81.4268,65.9268
81.3457,65.9810
81.2500,66.0000
80.7500,66.0000
80.6543,65.9810
80.5732,65.9268
80.5190,65.8457
80.5000,65.7500
80.5000,49.2500
80.5190,49.1543
80.5732,49.0732
80.6543,49.0190
80.7500,49.0000
81.2500,49.0000
81.3457,49.0190
81.4268,49.0732
81.4810,49.1543
81.5000,49.2500
Z" /> 
<path style="fill:#000000; fill-opacity:1.0000; stroke:none;fill-rule:evenodd;"
d="M 63.5000,63.7500
63.4810,63.8457
63.4268,63.9268
63.3457,63.9810
63.2500,64.0000
62.7500,64.0000
62.6543,63.9810
62.5732,63.9268
62.5190,63.8457
62.5000,63.7500
62.5000,47.2500
62.5190,47.1543
62.5732,47.0732
62.6543,47.0190
62.7500,47.0000
63.2500,47.0000
63.3457,47.0190
63.4268,47.0732
63.4810,47.1543
63.5000,47.2500
Z" /> 
<path style="fill:#000000; fill-opacity:1.0000; stroke:none;fill-rule:evenodd;"
d="M 67.5000,63.7500
67.4810,63.8457
67.4268,63.9268
67.3457,63.9810
67.2500,64.0000
66.7500,64.0000
66.6543,63.9810
66.5732,63.9268
66.5190,63.8457
66.5000,63.7500
66.5000,47.2500
66.5190,47.1543
66.5732,47.0732
66.6543,47.0190
66.7500,47.0000
67.2500,47.0000
67.3457,47.0190
67.4268,47.0732
67.4810,47.1543
67.5000,47.2500
Z" /> 
<path style="fill:#000000; fill-opacity:1.0000; stroke:none;fill-rule:evenodd;"
d="M 71.5000,63.7500
71.4810,63.8457
71.4268,63.9268
71.3457,63.9810
71.2500,64.0000
70.7500,64.0000
70.6543,63.9810
70.5732,63.9268
70.5190,63.8457
70.5000,63.7500
70.5000,47.2500
70.5190,47.1543
70.5732,47.0732
70.6543,47.0190
70.7500,47.0000
71.2500,47.0000
71.3457,47.0190
71.4268,47.0732
71.4810,47.1543
71.5000,47.2500
Z" /> 
<path style="fill:#000000; fill-opacity:1.0000; stroke:none;fill-rule:evenodd;"
d="M 75.5000,63.7500
75.4810,63.8457
75.4268,63.9268
75.3457,63.9810
75.2500,64.0000
74.7500,64.0000
74.6543,63.9810
74.5732,63.9268
74.5190,63.8457
74.5000,63.7500
74.5000,47.2500
74.5190,47.1543
74.5732,47.0732
74.6543,47.0190
74.7500,47.0000
75.2500,47.0000
75.3457,47.0190
75.4268,47.0732
75.4810,47.1543
75.5000,47.2500
Z" /> 
<path style="fill:#000000; fill-opacity:1.0000; stroke:none;fill-rule:evenodd;"
d="M 79.5000,63.7500
79.4810,63.8457
79.4268,63.9268
79.3457,63.9810
79.2500,64.0000
78.7500,64.0000
78.6543,63.9810
78.5732,63.9268
78.5190,63.8457
78.5000,63.7500
78.5000,47.2500
78.5190,47.1543
78.5732,47.0732
78.6543,47.0190
78.7500,47.0000
79.2500,47.0000
79.3457,47.0190
79.4268,47.0732
79.4810,47.1543
79.5000,47.2500
Z" /> 
<path style="fill:#000000; fill-opacity:1.0000; stroke:none;fill-rule:evenodd;"
d="M 61.2500,48.0000
61.1543,47.9810
61.0732,47.9268
61.0190,47.8457
61.0000,47.7500
61.0000,47.2500
61.0190,47.1543
61.0732,47.0732
61.1543,47.0190
61.2500,47.0000
80.7500,47.0000
80.8457,47.0190
80.9268,47.0732
80.9810,47.1543
81.0000,47.2500
81.0000,47.7500
80.9810,47.8457
80.9268,47.9268
80.8457,47.9810
80.7500,48.0000
Z" /> 
</g>
<g style="fill:#000000; fill-opacity:1.0000; stroke:none;">
<circle cx="80.0000" cy="42.1750" r="0.7500" /> 
</g>
<g style="fill:#000000; fill-opacity:1.0000; stroke:none;">
<circle cx="71.0000" cy="26.1750" r="0.7500" /> 
</g>
<g style="fill:#000000; fill-opacity:1.0000; stroke:none;">
<circle cx="62.0000" cy="42.1750" r="0.7500" /> 
</g>
<g style="fill:#000000; fill-opacity:1.0000; stroke:none;">
<circle cx="71.0000" cy="36.6750" r="8.9000" /> 
<path style="fill:#000000; fill-opacity:1.0000; stroke:none;fill-rule:evenodd;"
d="M 73.1900,22.1000
73.1900,23.9000
71.3900,23.9000
71.3900,22.1000
Z" /> 
</g>
<g style="fill:#000000; fill-opacity:1.0000; stroke:none;">
<circle cx="69.7500" cy="23.0000" r="0.9000" /> 
</g>
<g style="fill:none; 
stroke:#000000; stroke-width:1.0000; stroke-opacity:1; 
stroke-linecap:round; stroke-linejoin:round;">
<path d="M80.0000 42.1750
L81.5000 40.6750
" />
<path d="M81.5000 40.6750
L81.5000 30.2500
" />
<path d="M81.5000 30.2500
L77.4250 26.1750
" />
<path d="M77.4250 26.1750
L71.0000 26.1750
" />
<path d="M61.0000 57.5000
L61.0000 49.2500
" />
<path d="M61.0000 49.2500
L60.2500 49.2500
" />
<path d="M60.0000 49.0000
L60.0000 26.2500
" />
<path d="M60.2500 49.2500
L60.0000 49.0000
" />
<path d="M60.0000 26.2500
L63.2500 23.0000
" />
<path d="M63.2500 23.0000
L69.7500 23.0000
" />
<path d="M71.0000 47.5000
L80.0000 47.5000
" />
<path d="M80.0000 47.5000
L80.0000 42.1750
" />
<path d="M62.0000 47.5000
L62.0000 42.1750
" />
<path d="M71.0000 47.5000
L62.0000 47.5000
" />
<path d="M72.2900 23.0000
L72.1244 23.0000
" />
<path d="M69.0000 26.1244
L69.0000 34.6750
" />
<path d="M72.1244 23.0000
L69.0000 26.1244
" />
<path d="M69.0000 34.6750
L71.0000 36.6750
" />
<path d="M72.2900 23.0000
L72.4500 23.1600
" />
<path d="M72.4500 34.5500
L71.0000 36.0000
" />
<path d="M81.0000 49.5000
L81.0000 57.5000
" />
<path d="M69.0000 34.0000
L71.0000 36.0000
" />
</g> 
</svg>
